RedHatMono-LightItalic.ufo
<glyph name="numbersign" format="2">
  <advance width="600"/>
  <unicode hex="0023"/>
  <outline>
    <contour>
      <point x="4" y="0" type="line"/>
      <point x="54" y="0" type="line"/>
      <point x="179" y="228" type="line"/>
      <point x="335" y="228" type="line"/>
      <point x="210" y="0" type="line"/>
      <point x="260" y="0" type="line"/>
      <point x="385" y="228" type="line"/>
      <point x="521" y="228" type="line"/>
      <point x="530" y="271" type="line"/>
      <point x="408" y="271" type="line"/>
      <point x="495" y="429" type="line"/>
      <point x="612" y="429" type="line"/>
      <point x="621" y="472" type="line"/>
      <point x="518" y="472" type="line"/>
      <point x="643" y="700" type="line"/>
      <point x="593" y="700" type="line"/>
      <point x="468" y="472" type="line"/>
      <point x="312" y="472" type="line"/>
      <point x="437" y="700" type="line"/>
      <point x="387" y="700" type="line"/>
      <point x="262" y="472" type="line"/>
      <point x="126" y="472" type="line"/>
      <point x="117" y="429" type="line"/>
      <point x="239" y="429" type="line"/>
      <point x="152" y="271" type="line"/>
      <point x="35" y="271" type="line"/>
      <point x="26" y="228" type="line"/>
      <point x="129" y="228" type="line"/>
    </contour>
    <contour>
      <point x="202" y="271" type="line"/>
      <point x="289" y="429" type="line"/>
      <point x="445" y="429" type="line"/>
      <point x="358" y="271" type="line"/>
    </contour>
  </outline>
</glyph>
<glyph name="ampersand" format="2">
  <advance width="600"/>
  <unicode hex="0026"/>
  <outline>
    <contour>
      <point x="503" y="-11" type="curve"/>
      <point x="532" y="24" type="line"/>
      <point x="508" y="47"/>
      <point x="482" y="74"/>
      <point x="447" y="113" type="curve"/>
      <point x="492" y="171"/>
      <point x="530" y="245"/>
      <point x="557" y="331" type="curve"/>
      <point x="507" y="339" type="line"/>
      <point x="487" y="271"/>
      <point x="454" y="205"/>
      <point x="413" y="151" type="curve"/>
      <point x="361" y="211"/>
      <point x="299" y="294"/>
      <point x="262" y="361" type="curve"/>
      <point x="421" y="447"/>
      <point x="469" y="500"/>
      <point x="469" y="588" type="curve" smooth="yes"/>
      <point x="469" y="662"/>
      <point x="418" y="711"/>
      <point x="339" y="711" type="curve" smooth="yes"/>
      <point x="240" y="711"/>
      <point x="170" y="634"/>
      <point x="170" y="525" type="curve" smooth="yes"/>
      <point x="170" y="476"/>
      <point x="180" y="429"/>
      <point x="200" y="381" type="curve"/>
      <point x="85" y="317"/>
      <point x="36" y="249"/>
      <point x="36" y="156" type="curve" smooth="yes"/>
      <point x="36" y="55"/>
      <point x="110" y="-11"/>
      <point x="225" y="-11" type="curve" smooth="yes"/>
      <point x="294" y="-11"/>
      <point x="358" y="19"/>
      <point x="416" y="78" type="curve"/>
      <point x="446" y="45"/>
      <point x="475" y="15"/>
    </contour>
    <contour>
      <point x="225" y="35" type="curve" smooth="yes"/>
      <point x="140" y="35"/>
      <point x="88" y="83"/>
      <point x="88" y="162" type="curve" smooth="yes"/>
      <point x="88" y="232"/>
      <point x="127" y="285"/>
      <point x="220" y="339" type="curve"/>
      <point x="248" y="283"/>
      <point x="325" y="180"/>
      <point x="382" y="115" type="curve"/>
      <point x="333" y="63"/>
      <point x="279" y="35"/>
    </contour>
    <contour>
      <point x="242" y="404" type="curve"/>
      <point x="227" y="446"/>
      <point x="219" y="487"/>
      <point x="219" y="526" type="curve" smooth="yes"/>
      <point x="219" y="605"/>
      <point x="269" y="666"/>
      <point x="334" y="666" type="curve" smooth="yes"/>
      <point x="387" y="666"/>
      <point x="420" y="634"/>
      <point x="420" y="580" type="curve" smooth="yes"/>
      <point x="420" y="515"/>
      <point x="383" y="478"/>
    </contour>
  </outline>
</glyph>
<glyph name="quotesingle" format="2">
  <advance width="600"/>
  <unicode hex="0027"/>
  <outline>
    <contour>
      <point x="350" y="554" type="line"/>
      <point x="385" y="554" type="line"/>
      <point x="434" y="750" type="line"/>
      <point x="381" y="750" type="line"/>
    </contour>
  </outline>
</glyph>
<glyph name="parenright" format="2">
  <advance width="600"/>
  <unicode hex="0029"/>
  <outline>
    <contour>
      <point x="252" y="715" type="curve"/>
      <point x="220" y="675" type="line"/>
      <point x="321" y="591"/>
      <point x="379" y="458"/>
      <point x="379" y="320" type="curve" smooth="yes"/>
      <point x="379" y="114"/>
      <point x="248" y="-92"/>
      <point x="38" y="-175" type="curve"/>
      <point x="55" y="-221" type="line"/>
      <point x="286" y="-125"/>
      <point x="430" y="89"/>
      <point x="430" y="321" type="curve" smooth="yes"/>
      <point x="430" y="472"/>
      <point x="365" y="616"/>
    </contour>
  </outline>
</glyph>
<glyph name="asterisk" format="2">
  <advance width="600"/>
  <unicode hex="002A"/>
  <outline>
    <contour>
      <point x="306" y="350" type="line"/>
      <point x="345" y="350" type="line"/>
      <point x="373" y="496" type="line"/>
      <point x="471" y="412" type="line"/>
      <point x="500" y="444" type="line"/>
      <point x="396" y="526" type="line"/>
      <point x="529" y="592" type="line"/>
      <point x="512" y="628" type="line"/>
      <point x="388" y="564" type="line"/>
      <point x="417" y="700" type="line"/>
      <point x="378" y="700" type="line"/>
      <point x="352" y="563" type="line"/>
      <point x="256" y="645" type="line"/>
      <point x="229" y="614" type="line"/>
      <point x="328" y="533" type="line"/>
      <point x="192" y="464" type="line"/>
      <point x="209" y="428" type="line"/>
      <point x="339" y="497" type="line"/>
    </contour>
  </outline>
</glyph>
<glyph name="plus" format="2">
  <advance width="600"/>
  <unicode hex="002B"/>
  <outline>
    <contour>
      <point x="259" y="152" type="line"/>
      <point x="304" y="152" type="line"/>
      <point x="343" y="334" type="line"/>
      <point x="511" y="334" type="line"/>
      <point x="520" y="379" type="line"/>
      <point x="353" y="379" type="line"/>
      <point x="392" y="561" type="line"/>
      <point x="347" y="561" type="line"/>
      <point x="308" y="379" type="line"/>
      <point x="139" y="379" type="line"/>
      <point x="130" y="334" type="line"/>
      <point x="298" y="334" type="line"/>
    </contour>
  </outline>
</glyph>
<glyph name="hyphen" format="2">
  <advance width="600"/>
  <unicode hex="002D"/>
  <outline>
    <contour>
      <point x="143" y="258" type="line"/>
      <point x="465" y="258" type="line"/>
      <point x="475" y="302" type="line"/>
      <point x="153" y="302" type="line"/>
    </contour>
  </outline>
</glyph>
<glyph name="one" format="2">
  <advance width="600"/>
  <unicode hex="0031"/>
  <guideline x="453" y="105" angle="0.0" identifier="pXguCbBa3n"/>
  <outline>
    <contour>
      <point x="43" y="0" type="line"/>
      <point x="478" y="0" type="line"/>
      <point x="487" y="45" type="line"/>
      <point x="288" y="45" type="line"/>
      <point x="427" y="700" type="line"/>
      <point x="398" y="700" type="line"/>
      <point x="173" y="612" type="line"/>
      <point x="161" y="558" type="line"/>
      <point x="364" y="637" type="line"/>
      <point x="239" y="45" type="line"/>
      <point x="52" y="45" type="line"/>
    </contour>
  </outline>
</glyph>
<glyph name="three" format="2">
  <advance width="600"/>
  <unicode hex="0033"/>
  <outline>
    <contour>
      <point x="266" y="-11" type="curve" smooth="yes"/>
      <point x="406" y="-11"/>
      <point x="507" y="79"/>
      <point x="507" y="204" type="curve" smooth="yes"/>
      <point x="507" y="270"/>
      <point x="462" y="328"/>
      <point x="396" y="352" type="curve"/>
      <point x="496" y="387"/>
      <point x="548" y="450"/>
      <point x="548" y="538" type="curve" smooth="yes"/>
      <point x="548" y="641"/>
      <point x="463" y="711"/>
      <point x="337" y="711" type="curve" smooth="yes"/>
      <point x="255" y="711"/>
      <point x="187" y="686"/>
      <point x="133" y="634" type="curve"/>
      <point x="161" y="599" type="line"/>
      <point x="219" y="648"/>
      <point x="268" y="666"/>
      <point x="339" y="666" type="curve" smooth="yes"/>
      <point x="433" y="666"/>
      <point x="497" y="611"/>
      <point x="497" y="530" type="curve" smooth="yes"/>
      <point x="497" y="450"/>
      <point x="423" y="383"/>
      <point x="336" y="383" type="curve" smooth="yes"/>
      <point x="252" y="383" type="line"/>
      <point x="243" y="339" type="line"/>
      <point x="299" y="339" type="line" smooth="yes"/>
      <point x="390" y="339"/>
      <point x="456" y="279"/>
      <point x="456" y="196" type="curve" smooth="yes"/>
      <point x="456" y="101"/>
      <point x="381" y="34"/>
      <point x="274" y="34" type="curve" smooth="yes"/>
      <point x="190" y="34"/>
      <point x="124" y="68"/>
      <point x="68" y="140" type="curve"/>
      <point x="30" y="107" type="line"/>
      <point x="96" y="27"/>
      <point x="171" y="-11"/>
    </contour>
  </outline>
</glyph>
<glyph name="four" format="2">
  <advance width="600"/>
  <unicode hex="0034"/>
  <outline>
    <contour>
      <point x="367" y="0" type="line"/>
      <point x="416" y="0" type="line"/>
      <point x="458" y="195" type="line"/>
      <point x="559" y="195" type="line"/>
      <point x="569" y="240" type="line"/>
      <point x="467" y="240" type="line"/>
      <point x="566" y="700" type="line"/>
      <point x="515" y="700" type="line"/>
      <point x="34" y="233" type="line"/>
      <point x="26" y="195" type="line"/>
      <point x="409" y="195" type="line"/>
    </contour>
    <contour>
      <point x="106" y="240" type="line"/>
      <point x="500" y="622" type="line"/>
      <point x="418" y="240" type="line"/>
    </contour>
  </outline>
</glyph>
<glyph name="five" format="2">
  <advance width="600"/>
  <unicode hex="0035"/>
  <outline>
    <contour>
      <point x="265" y="-11" type="curve" smooth="yes"/>
      <point x="408" y="-11"/>
      <point x="526" y="101"/>
      <point x="526" y="237" type="curve" smooth="yes"/>
      <point x="526" y="358"/>
      <point x="445" y="431"/>
      <point x="313" y="431" type="curve" smooth="yes"/>
      <point x="266" y="431"/>
      <point x="229" y="421"/>
      <point x="179" y="400" type="curve"/>
      <point x="244" y="655" type="line"/>
      <point x="575" y="655" type="line"/>
      <point x="585" y="700" type="line"/>
      <point x="208" y="700" type="line"/>
      <point x="124" y="368" type="line"/>
      <point x="155" y="354" type="line"/>
      <point x="212" y="377"/>
      <point x="257" y="387"/>
      <point x="302" y="387" type="curve" smooth="yes"/>
      <point x="413" y="387"/>
      <point x="475" y="331"/>
      <point x="475" y="234" type="curve" smooth="yes"/>
      <point x="475" y="120"/>
      <point x="387" y="34"/>
      <point x="267" y="34" type="curve" smooth="yes"/>
      <point x="185" y="34"/>
      <point x="122" y="65"/>
      <point x="72" y="132" type="curve"/>
      <point x="38" y="100" type="line"/>
      <point x="88" y="30"/>
      <point x="169" y="-11"/>
    </contour>
  </outline>
</glyph>
<glyph name="six" format="2">
  <advance width="600"/>
  <unicode hex="0036"/>
  <outline>
    <contour>
      <point x="307" y="-11" type="curve" smooth="yes"/>
      <point x="436" y="-11"/>
      <point x="551" y="80"/>
      <point x="551" y="230" type="curve" smooth="yes"/>
      <point x="551" y="346"/>
      <point x="465" y="438"/>
      <point x="331" y="438" type="curve" smooth="yes"/>
      <point x="253" y="438"/>
      <point x="181" y="402"/>
      <point x="124" y="341" type="curve"/>
      <point x="144" y="542"/>
      <point x="265" y="666"/>
      <point x="407" y="666" type="curve" smooth="yes"/>
      <point x="460" y="666"/>
      <point x="504" y="649"/>
      <point x="561" y="612" type="curve"/>
      <point x="584" y="653" type="line"/>
      <point x="523" y="693"/>
      <point x="467" y="711"/>
      <point x="404" y="711" type="curve" smooth="yes"/>
      <point x="225" y="711"/>
      <point x="70" y="549"/>
      <point x="70" y="272" type="curve" smooth="yes"/>
      <point x="70" y="90"/>
      <point x="187" y="-11"/>
    </contour>
    <contour>
      <point x="315" y="34" type="curve" smooth="yes"/>
      <point x="205" y="34"/>
      <point x="119" y="124"/>
      <point x="121" y="292" type="curve"/>
      <point x="175" y="355"/>
      <point x="252" y="394"/>
      <point x="327" y="394" type="curve" smooth="yes"/>
      <point x="436" y="394"/>
      <point x="500" y="329"/>
      <point x="500" y="233" type="curve" smooth="yes"/>
      <point x="500" y="119"/>
      <point x="420" y="34"/>
    </contour>
  </outline>
</glyph>
<glyph name="seven" format="2">
  <advance width="600"/>
  <unicode hex="0037"/>
  <outline>
    <contour>
      <point x="65" y="0" type="line"/>
      <point x="124" y="0" type="line"/>
      <point x="628" y="662" type="line"/>
      <point x="636" y="700" type="line"/>
      <point x="146" y="700" type="line"/>
      <point x="137" y="655" type="line"/>
      <point x="563" y="655" type="line"/>
    </contour>
  </outline>
</glyph>
<glyph name="eight" format="2">
  <advance width="600"/>
  <unicode hex="0038"/>
  <note>
Version created Tue Sep 18 15:49:42 2018
</note>
  <outline>
    <contour>
      <point x="284" y="-11" type="curve" smooth="yes"/>
      <point x="425" y="-11"/>
      <point x="531" y="76"/>
      <point x="531" y="192" type="curve" smooth="yes"/>
      <point x="531" y="265"/>
      <point x="482" y="330"/>
      <point x="405" y="362" type="curve"/>
      <point x="513" y="391"/>
      <point x="572" y="455"/>
      <point x="572" y="544" type="curve" smooth="yes"/>
      <point x="572" y="642"/>
      <point x="487" y="711"/>
      <point x="365" y="711" type="curve" smooth="yes"/>
      <point x="236" y="711"/>
      <point x="142" y="633"/>
      <point x="142" y="525" type="curve" smooth="yes"/>
      <point x="142" y="458"/>
      <point x="180" y="407"/>
      <point x="244" y="381" type="curve"/>
      <point x="128" y="361"/>
      <point x="47" y="283"/>
      <point x="47" y="182" type="curve" smooth="yes"/>
      <point x="47" y="71"/>
      <point x="148" y="-11"/>
    </contour>
    <contour>
      <point x="353" y="397" type="curve" smooth="yes"/>
      <point x="249" y="397"/>
      <point x="189" y="443"/>
      <point x="189" y="522" type="curve" smooth="yes"/>
      <point x="189" y="605"/>
      <point x="263" y="667"/>
      <point x="361" y="667" type="curve" smooth="yes"/>
      <point x="465" y="667"/>
      <point x="525" y="622"/>
      <point x="525" y="543" type="curve" smooth="yes"/>
      <point x="525" y="461"/>
      <point x="450" y="397"/>
    </contour>
    <contour>
      <point x="288" y="34" type="curve" smooth="yes"/>
      <point x="176" y="34"/>
      <point x="95" y="99"/>
      <point x="95" y="188" type="curve" smooth="yes"/>
      <point x="95" y="284"/>
      <point x="173" y="348"/>
      <point x="290" y="348" type="curve" smooth="yes"/>
      <point x="402" y="348"/>
      <point x="483" y="284"/>
      <point x="483" y="195" type="curve" smooth="yes"/>
      <point x="483" y="99"/>
      <point x="405" y="34"/>
    </contour>
  </outline>
</glyph>
<glyph name="greater" format="2">
  <advance width="600"/>
  <unicode hex="003E"/>
  <outline>
    <contour>
      <point x="245" y="580" type="line"/>
      <point x="214" y="548" type="line"/>
      <point x="436" y="353" type="line"/>
      <point x="129" y="157" type="line"/>
      <point x="151" y="119" type="line"/>
      <point x="504" y="349" type="line"/>
    </contour>
  </outline>
</glyph>
<glyph name="question" format="2">
  <advance width="600"/>
  <unicode hex="003F"/>
  <guideline x="314" y="201" angle="78.0" color="0.999,0.001,0.001,0.999" identifier="DcyMJdXtk4"/>
  <outline>
    <contour>
      <point x="241" y="201" type="curve"/>
      <point x="286" y="201" type="line"/>
      <point x="310" y="397"/>
      <point x="561" y="342"/>
      <point x="561" y="555" type="curve" smooth="yes"/>
      <point x="561" y="643"/>
      <point x="487" y="711"/>
      <point x="380" y="711" type="curve" smooth="yes"/>
      <point x="310" y="711"/>
      <point x="240" y="678"/>
      <point x="174" y="619" type="curve"/>
      <point x="205" y="579" type="line"/>
      <point x="261" y="631"/>
      <point x="321" y="663"/>
      <point x="381" y="663" type="curve" smooth="yes"/>
      <point x="458" y="663"/>
      <point x="512" y="617"/>
      <point x="512" y="553" type="curve" smooth="yes"/>
      <point x="512" y="386"/>
      <point x="255" y="414"/>
    </contour>
    <contour>
      <point x="229" y="-8" type="curve" smooth="yes"/>
      <point x="259" y="-8"/>
      <point x="288" y="21"/>
      <point x="288" y="53" type="curve" smooth="yes"/>
      <point x="288" y="80"/>
      <point x="268" y="100"/>
      <point x="241" y="100" type="curve" smooth="yes"/>
      <point x="211" y="100"/>
      <point x="182" y="71"/>
      <point x="182" y="39" type="curve" smooth="yes"/>
      <point x="182" y="12"/>
      <point x="202" y="-8"/>
    </contour>
  </outline>
</glyph>
<glyph name="A" format="2">
  <advance width="600"/>
  <unicode hex="0041"/>
  <guideline x="397" y="700" angle="0.0" color="0.999,0.001,0.001,0.999" identifier="Cx33hZyDh1"/>
  <anchor x="397" y="700" name="top"/>
  <anchor x="529" y="0" name="bottom"/>
  <outline>
    <contour>
      <point x="-31" y="0" type="line"/>
      <point x="28" y="0" type="line"/>
      <point x="144" y="210" type="line"/>
      <point x="450" y="210" type="line"/>
      <point x="478" y="0" type="line"/>
      <point x="529" y="0" type="line"/>
      <point x="433" y="700" type="line"/>
      <point x="361" y="700" type="line"/>
    </contour>
    <contour>
      <point x="167" y="252" type="line"/>
      <point x="390" y="658" type="line"/>
      <point x="444" y="252" type="line"/>
    </contour>
  </outline>
</glyph>
<glyph name="B" format="2">
  <advance width="600"/>
  <unicode hex="0042"/>
  <outline>
    <contour>
      <point x="50" y="0" type="line"/>
      <point x="283" y="0" type="line" smooth="yes"/>
      <point x="426" y="0"/>
      <point x="529" y="91"/>
      <point x="529" y="218" type="curve" smooth="yes"/>
      <point x="529" y="293"/>
      <point x="485" y="344"/>
      <point x="408" y="362" type="curve"/>
      <point x="507" y="381"/>
      <point x="572" y="453"/>
      <point x="572" y="548" type="curve" smooth="yes"/>
      <point x="572" y="643"/>
      <point x="504" y="700"/>
      <point x="392" y="700" type="curve" smooth="yes"/>
      <point x="199" y="700" type="line"/>
    </contour>
    <contour>
      <point x="183" y="386" type="line"/>
      <point x="240" y="653" type="line"/>
      <point x="385" y="653" type="line" smooth="yes"/>
      <point x="470" y="653"/>
      <point x="521" y="609"/>
      <point x="521" y="540" type="curve" smooth="yes"/>
      <point x="521" y="450"/>
      <point x="450" y="386"/>
      <point x="348" y="386" type="curve" smooth="yes"/>
    </contour>
    <contour>
      <point x="111" y="47" type="line"/>
      <point x="174" y="342" type="line"/>
      <point x="325" y="342" type="line" smooth="yes"/>
      <point x="420" y="342"/>
      <point x="477" y="294"/>
      <point x="477" y="216" type="curve" smooth="yes"/>
      <point x="477" y="116"/>
      <point x="398" y="47"/>
      <point x="283" y="47" type="curve" smooth="yes"/>
    </contour>
  </outline>
</glyph>
<glyph name="E" format="2">
  <advance width="600"/>
  <unicode hex="0045"/>
  <guideline x="414" y="700" angle="0.0" color="0.999,0.001,0.001,0.999" identifier="Wni4gYSWCf"/>
  <anchor x="414" y="700" name="top"/>
  <anchor x="481" y="0" name="bottom"/>
  <outline>
    <contour>
      <point x="53" y="0" type="line"/>
      <point x="481" y="0" type="line"/>
      <point x="491" y="47" type="line"/>
      <point x="114" y="47" type="line"/>
      <point x="174" y="330" type="line"/>
      <point x="426" y="330" type="line"/>
      <point x="436" y="377" type="line"/>
      <point x="184" y="377" type="line"/>
      <point x="243" y="653" type="line"/>
      <point x="617" y="653" type="line"/>
      <point x="627" y="700" type="line"/>
      <point x="202" y="700" type="line"/>
    </contour>
  </outline>
</glyph>
<glyph name="G" format="2">
  <advance width="600"/>
  <unicode hex="0047"/>
  <anchor x="380" y="700" name="top"/>
  <anchor x="287" y="0" name="bottom"/>
  <outline>
    <contour>
      <point x="284" y="-11" type="curve" smooth="yes"/>
      <point x="432" y="-11"/>
      <point x="533" y="106"/>
      <point x="585" y="334" type="curve" smooth="yes"/>
      <point x="590" y="356" type="line"/>
      <point x="360" y="356" type="line"/>
      <point x="350" y="309" type="line"/>
      <point x="524" y="309" type="line"/>
      <point x="488" y="135"/>
      <point x="403" y="37"/>
      <point x="288" y="37" type="curve" smooth="yes"/>
      <point x="179" y="37"/>
      <point x="114" y="128"/>
      <point x="114" y="277" type="curve" smooth="yes"/>
      <point x="114" y="513"/>
      <point x="235" y="663"/>
      <point x="377" y="663" type="curve" smooth="yes"/>
      <point x="468" y="663"/>
      <point x="530" y="605"/>
      <point x="552" y="495" type="curve"/>
      <point x="602" y="505" type="line"/>
      <point x="578" y="636"/>
      <point x="493" y="711"/>
      <point x="376" y="711" type="curve" smooth="yes"/>
      <point x="212" y="711"/>
      <point x="63" y="555"/>
      <point x="63" y="276" type="curve" smooth="yes"/>
      <point x="63" y="94"/>
      <point x="148" y="-11"/>
    </contour>
  </outline>
</glyph>
<glyph name="I" format="2">
  <advance width="600"/>
  <unicode hex="0049"/>
  <guideline x="213" y="18" angle="0.0" identifier="IUDAI6KpPW"/>
  <guideline x="389" y="668" angle="0.0" identifier="BMXG0tnWIL"/>
  <anchor x="394" y="700" name="top"/>
  <anchor x="460" y="0" name="bottom"/>
  <outline>
    <contour>
      <point x="38" y="0" type="line"/>
      <point x="460" y="0" type="line"/>
      <point x="470" y="47" type="line"/>
      <point x="284" y="47" type="line"/>
      <point x="413" y="653" type="line"/>
      <point x="599" y="653" type="line"/>
      <point x="609" y="700" type="line"/>
      <point x="187" y="700" type="line"/>
      <point x="177" y="653" type="line"/>
      <point x="362" y="653" type="line"/>
      <point x="233" y="47" type="line"/>
      <point x="48" y="47" type="line"/>
    </contour>
  </outline>
</glyph>
<glyph name="K" format="2">
  <advance width="600"/>
  <unicode hex="004B"/>
  <guideline x="282" y="0" angle="0.0" color="0.999,0.001,0.001,0.999" identifier="RGUborwAfv"/>
  <anchor x="272" y="0" name="bottom"/>
  <outline>
    <contour>
      <point x="64" y="0" type="line"/>
      <point x="115" y="0" type="line"/>
      <point x="190" y="351" type="line"/>
      <point x="449" y="0" type="line"/>
      <point x="518" y="0" type="line"/>
      <point x="246" y="356" type="line"/>
      <point x="659" y="700" type="line"/>
      <point x="584" y="700" type="line"/>
      <point x="194" y="371" type="line"/>
      <point x="264" y="700" type="line"/>
      <point x="213" y="700" type="line"/>
    </contour>
  </outline>
</glyph>
<glyph name="L" format="2">
  <advance width="600"/>
  <unicode hex="004C"/>
  <guideline x="273" y="0" angle="0.0" color="0.999,0.001,0.001,0.999" identifier="pApVuatGDi"/>
  <anchor x="236" y="700" name="top"/>
  <anchor x="274" y="0" name="bottom"/>
  <outline>
    <contour>
      <point x="61" y="0" type="line"/>
      <point x="485" y="0" type="line"/>
      <point x="495" y="47" type="line"/>
      <point x="122" y="47" type="line"/>
      <point x="261" y="700" type="line"/>
      <point x="210" y="700" type="line"/>
    </contour>
  </outline>
</glyph>
<glyph name="M" format="2">
  <advance width="600"/>
  <unicode hex="004D"/>
  <guideline x="534" y="613" angle="0.0" identifier="hyldUCzMAp"/>
  <outline>
    <contour>
      <point x="13" y="0" type="line"/>
      <point x="62" y="0" type="line"/>
      <point x="200" y="650" type="line"/>
      <point x="298" y="221" type="line"/>
      <point x="573" y="643" type="line"/>
      <point x="436" y="0" type="line"/>
      <point x="485" y="0" type="line"/>
      <point x="634" y="700" type="line"/>
      <point x="560" y="700" type="line"/>
      <point x="320" y="338" type="line"/>
      <point x="232" y="700" type="line"/>
      <point x="162" y="700" type="line"/>
    </contour>
  </outline>
</glyph>
<glyph name="N" format="2">
  <advance width="600"/>
  <unicode hex="004E"/>
  <guideline x="398" y="700" angle="0.0" color="0.999,0.001,0.001,0.999" identifier="3xBKJz29bK"/>
  <anchor x="399" y="700" name="top"/>
  <anchor x="234" y="0" name="bottom"/>
  <outline>
    <contour>
      <point x="34" y="0" type="line"/>
      <point x="83" y="0" type="line"/>
      <point x="220" y="642" type="line"/>
      <point x="409" y="0" type="line"/>
      <point x="465" y="0" type="line"/>
      <point x="614" y="700" type="line"/>
      <point x="565" y="700" type="line"/>
      <point x="433" y="82" type="line"/>
      <point x="251" y="700" type="line"/>
      <point x="183" y="700" type="line"/>
    </contour>
  </outline>
</glyph>
<glyph name="O" format="2">
  <advance width="600"/>
  <unicode hex="004F"/>
  <anchor x="382" y="700" name="top"/>
  <outline>
    <contour>
      <point x="269" y="-11" type="curve" smooth="yes"/>
      <point x="440" y="-11"/>
      <point x="588" y="198"/>
      <point x="588" y="441" type="curve" smooth="yes"/>
      <point x="588" y="605"/>
      <point x="505" y="711"/>
      <point x="377" y="711" type="curve" smooth="yes"/>
      <point x="206" y="711"/>
      <point x="58" y="502"/>
      <point x="58" y="259" type="curve" smooth="yes"/>
      <point x="58" y="95"/>
      <point x="141" y="-11"/>
    </contour>
    <contour>
      <point x="270" y="37" type="curve" smooth="yes"/>
      <point x="172" y="37"/>
      <point x="109" y="124"/>
      <point x="109" y="259" type="curve" smooth="yes"/>
      <point x="109" y="474"/>
      <point x="234" y="663"/>
      <point x="376" y="663" type="curve" smooth="yes"/>
      <point x="474" y="663"/>
      <point x="537" y="576"/>
      <point x="537" y="441" type="curve" smooth="yes"/>
      <point x="537" y="226"/>
      <point x="412" y="37"/>
    </contour>
  </outline>
</glyph>
<glyph name="R" format="2">
  <advance width="600"/>
  <unicode hex="0052"/>
  <anchor x="392" y="700" name="top"/>
  <anchor x="304" y="0" name="bottom"/>
  <outline>
    <contour>
      <point x="63" y="0" type="line"/>
      <point x="114" y="0" type="line"/>
      <point x="180" y="308" type="line"/>
      <point x="341" y="308" type="line"/>
      <point x="440" y="0" type="line"/>
      <point x="492" y="0" type="line"/>
      <point x="392" y="312" type="line"/>
      <point x="505" y="331"/>
      <point x="582" y="415"/>
      <point x="582" y="529" type="curve" smooth="yes"/>
      <point x="582" y="634"/>
      <point x="509" y="700"/>
      <point x="393" y="700" type="curve" smooth="yes"/>
      <point x="212" y="700" type="line"/>
    </contour>
    <contour>
      <point x="190" y="355" type="line"/>
      <point x="253" y="653" type="line"/>
      <point x="387" y="653" type="line" smooth="yes"/>
      <point x="476" y="653"/>
      <point x="531" y="605"/>
      <point x="531" y="527" type="curve" smooth="yes"/>
      <point x="531" y="426"/>
      <point x="453" y="355"/>
      <point x="344" y="355" type="curve" smooth="yes"/>
    </contour>
  </outline>
</glyph>
<glyph name="V" format="2">
  <advance width="600"/>
  <unicode hex="0056"/>
  <outline>
    <contour>
      <point x="213" y="0" type="line"/>
      <point x="284" y="0" type="line"/>
      <point x="677" y="700" type="line"/>
      <point x="619" y="700" type="line"/>
      <point x="256" y="47" type="line"/>
      <point x="170" y="700" type="line"/>
      <point x="119" y="700" type="line"/>
    </contour>
  </outline>
</glyph>
<glyph name="X" format="2">
  <advance width="600"/>
  <unicode hex="0058"/>
  <outline>
    <contour>
      <point x="-28" y="0" type="line"/>
      <point x="39" y="0" type="line"/>
      <point x="317" y="322" type="line"/>
      <point x="456" y="0" type="line"/>
      <point x="515" y="0" type="line"/>
      <point x="352" y="361" type="line"/>
      <point x="648" y="700" type="line"/>
      <point x="583" y="700" type="line"/>
      <point x="329" y="404" type="line"/>
      <point x="203" y="700" type="line"/>
      <point x="144" y="700" type="line"/>
      <point x="294" y="366" type="line"/>
    </contour>
  </outline>
</glyph>
<glyph name="Z" format="2">
  <advance width="600"/>
  <unicode hex="005A"/>
  <guideline x="398" y="700" angle="0.0" color="0.999,0.001,0.001,0.999" identifier="hb9SQE2nZS"/>
  <anchor x="398" y="700" name="top"/>
  <outline>
    <contour>
      <point x="2" y="0" type="line"/>
      <point x="496" y="0" type="line"/>
      <point x="506" y="47" type="line"/>
      <point x="80" y="47" type="line"/>
      <point x="630" y="662" type="line"/>
      <point x="638" y="700" type="line"/>
      <point x="158" y="700" type="line"/>
      <point x="148" y="653" type="line"/>
      <point x="560" y="653" type="line"/>
      <point x="10" y="38" type="line"/>
    </contour>
  </outline>
</glyph>
<glyph name="bracketleft" format="2">
  <advance width="600"/>
  <unicode hex="005B"/>
  <outline>
    <contour>
      <point x="98" y="-215" type="line"/>
      <point x="374" y="-215" type="line"/>
      <point x="383" y="-172" type="line"/>
      <point x="156" y="-172" type="line"/>
      <point x="333" y="657" type="line"/>
      <point x="559" y="657" type="line"/>
      <point x="568" y="700" type="line"/>
      <point x="293" y="700" type="line"/>
    </contour>
  </outline>
</glyph>
<glyph name="bracketright" format="2">
  <advance width="600"/>
  <unicode hex="005D"/>
  <outline>
    <contour>
      <point x="503" y="700" type="line"/>
      <point x="227" y="700" type="line"/>
      <point x="218" y="657" type="line"/>
      <point x="445" y="657" type="line"/>
      <point x="268" y="-172" type="line"/>
      <point x="42" y="-172" type="line"/>
      <point x="33" y="-215" type="line"/>
      <point x="308" y="-215" type="line"/>
    </contour>
  </outline>
</glyph>
<glyph name="underscore" format="2">
  <advance width="600"/>
  <unicode hex="005F"/>
  <outline>
    <contour>
      <point x="-5" y="-124" type="line"/>
      <point x="451" y="-124" type="line"/>
      <point x="460" y="-80" type="line"/>
      <point x="4" y="-80" type="line"/>
    </contour>
  </outline>
</glyph>
<glyph name="b" format="2">
  <advance width="600"/>
  <unicode hex="0062"/>
  <outline>
    <contour>
      <point x="283" y="-8" type="curve" smooth="yes"/>
      <point x="422" y="-8"/>
      <point x="536" y="115"/>
      <point x="536" y="266" type="curve" smooth="yes"/>
      <point x="536" y="394"/>
      <point x="453" y="487"/>
      <point x="333" y="487" type="curve" smooth="yes"/>
      <point x="279" y="487"/>
      <point x="234" y="470"/>
      <point x="194" y="430" type="curve"/>
      <point x="257" y="737" type="line"/>
      <point x="206" y="725" type="line"/>
      <point x="54" y="0" type="line"/>
      <point x="102" y="0" type="line"/>
      <point x="118" y="74" type="line"/>
      <point x="160" y="21"/>
      <point x="214" y="-8"/>
    </contour>
    <contour>
      <point x="130" y="122" type="curve"/>
      <point x="184" y="386" type="line"/>
      <point x="222" y="423"/>
      <point x="265" y="441"/>
      <point x="317" y="441" type="curve" smooth="yes"/>
      <point x="419" y="441"/>
      <point x="487" y="369"/>
      <point x="487" y="261" type="curve" smooth="yes"/>
      <point x="487" y="137"/>
      <point x="396" y="38"/>
      <point x="280" y="38" type="curve" smooth="yes"/>
      <point x="218" y="38"/>
      <point x="158" y="73"/>
    </contour>
  </outline>
</glyph>
<glyph name="c" format="2">
  <advance width="600"/>
  <unicode hex="0063"/>
  <anchor x="328" y="481" name="top"/>
  <anchor x="280" y="0" name="bottom"/>
  <outline>
    <contour>
      <point x="278" y="-10" type="curve" smooth="yes"/>
      <point x="353" y="-10"/>
      <point x="427" y="23"/>
      <point x="475" y="80" type="curve"/>
      <point x="441" y="110" type="line"/>
      <point x="400" y="63"/>
      <point x="341" y="36"/>
      <point x="279" y="36" type="curve" smooth="yes"/>
      <point x="189" y="36"/>
      <point x="121" y="106"/>
      <point x="121" y="205" type="curve" smooth="yes"/>
      <point x="121" y="337"/>
      <point x="217" y="443"/>
      <point x="331" y="443" type="curve" smooth="yes"/>
      <point x="401" y="443"/>
      <point x="454" y="407"/>
      <point x="476" y="345" type="curve"/>
      <point x="520" y="361" type="line"/>
      <point x="490" y="441"/>
      <point x="420" y="489"/>
      <point x="334" y="489" type="curve" smooth="yes"/>
      <point x="190" y="489"/>
      <point x="72" y="364"/>
      <point x="72" y="206" type="curve" smooth="yes"/>
      <point x="72" y="79"/>
      <point x="158" y="-10"/>
    </contour>
  </outline>
</glyph>
<glyph name="d" format="2">
  <advance width="600"/>
  <unicode hex="0064"/>
  <outline>
    <contour>
      <point x="266" y="-8" type="curve"/>
      <point x="322" y="-8"/>
      <point x="368" y="11"/>
      <point x="409" y="51" type="curve"/>
      <point x="398" y="0" type="line"/>
      <point x="447" y="0" type="line"/>
      <point x="601" y="737" type="line"/>
      <point x="550" y="725" type="line"/>
      <point x="483" y="403" type="line"/>
      <point x="441" y="457"/>
      <point x="386" y="487"/>
      <point x="317" y="487" type="curve" smooth="yes"/>
      <point x="178" y="487"/>
      <point x="64" y="364"/>
      <point x="64" y="213" type="curve" smooth="yes"/>
      <point x="64" y="85"/>
      <point x="147" y="-8"/>
    </contour>
    <contour>
      <point x="113" y="218" type="curve" smooth="yes"/>
      <point x="113" y="342"/>
      <point x="204" y="441"/>
      <point x="320" y="441" type="curve" smooth="yes"/>
      <point x="384" y="441"/>
      <point x="445" y="404"/>
      <point x="472" y="353" type="curve"/>
      <point x="419" y="96" type="line"/>
      <point x="381" y="57"/>
      <point x="336" y="38"/>
      <point x="282" y="38" type="curve"/>
      <point x="181" y="38"/>
      <point x="113" y="110"/>
    </contour>
  </outline>
</glyph>
<glyph name="i" format="2">
  <advance width="600"/>
  <unicode hex="0069"/>
  <note>
Version created Wed Nov 11 16:21:20 2020
</note>
  <guideline x="389" y="481" angle="0.0" color="0.999,0.001,0.001,0.999" identifier="dzTd0XoNjv"/>
  <anchor x="344" y="481" name="top"/>
  <anchor x="433" y="0" name="bottom"/>
  <outline>
    <contour>
      <point x="371" y="605" type="curve" smooth="yes"/>
      <point x="403" y="605"/>
      <point x="429" y="631"/>
      <point x="429" y="660" type="curve" smooth="yes"/>
      <point x="429" y="687"/>
      <point x="406" y="710"/>
      <point x="379" y="710" type="curve" smooth="yes"/>
      <point x="348" y="710"/>
      <point x="322" y="683"/>
      <point x="322" y="655" type="curve" smooth="yes"/>
      <point x="322" y="626"/>
      <point x="343" y="605"/>
    </contour>
    <contour>
      <point x="371" y="-10" type="curve" smooth="yes"/>
      <point x="401" y="-10"/>
      <point x="427" y="-5"/>
      <point x="455" y="5" type="curve"/>
      <point x="465" y="50" type="line"/>
      <point x="432" y="38"/>
      <point x="407" y="33"/>
      <point x="379" y="33" type="curve" smooth="yes"/>
      <point x="304" y="33"/>
      <point x="277" y="63"/>
      <point x="292" y="130" type="curve" smooth="yes"/>
      <point x="368" y="481" type="line"/>
      <point x="136" y="481" type="line"/>
      <point x="127" y="438" type="line"/>
      <point x="310" y="438" type="line"/>
      <point x="243" y="132" type="line" smooth="yes"/>
      <point x="223" y="41"/>
      <point x="270" y="-10"/>
    </contour>
  </outline>
</glyph>
<glyph name="j" format="2">
  <advance width="600"/>
  <unicode hex="006A"/>
  <guideline x="543" y="419" angle="0.0" identifier="iDpPTQMYma"/>
  <guideline x="451" y="-51" angle="0.0" identifier="CH9mFOFRr6"/>
  <outline>
    <contour>
      <point x="465" y="605" type="curve" smooth="yes"/>
      <point x="497" y="605"/>
      <point x="522" y="631"/>
      <point x="522" y="660" type="curve" smooth="yes"/>
      <point x="522" y="687"/>
      <point x="500" y="710"/>
      <point x="473" y="710" type="curve" smooth="yes"/>
      <point x="442" y="710"/>
      <point x="415" y="683"/>
      <point x="415" y="655" type="curve" smooth="yes"/>
      <point x="415" y="626"/>
      <point x="437" y="605"/>
    </contour>
    <contour>
      <point x="172" y="-219" type="curve" smooth="yes"/>
      <point x="257" y="-219"/>
      <point x="322" y="-171"/>
      <point x="341" y="-81" type="curve" smooth="yes"/>
      <point x="459" y="481" type="line"/>
      <point x="154" y="481" type="line"/>
      <point x="145" y="438" type="line"/>
      <point x="401" y="438" type="line"/>
      <point x="294" y="-74" type="line" smooth="yes"/>
      <point x="279" y="-145"/>
      <point x="245" y="-173"/>
      <point x="175" y="-173" type="curve" smooth="yes"/>
      <point x="125" y="-173"/>
      <point x="80" y="-159"/>
      <point x="26" y="-131" type="curve"/>
      <point x="16" y="-179" type="line"/>
      <point x="69" y="-205"/>
      <point x="122" y="-219"/>
    </contour>
  </outline>
</glyph>
<glyph name="k" format="2">
  <advance width="600"/>
  <unicode hex="006B"/>
  <anchor x="252" y="0" name="bottom"/>
  <outline>
    <contour>
      <point x="76" y="0" type="line"/>
      <point x="125" y="0" type="line"/>
      <point x="177" y="249" type="line"/>
      <point x="421" y="0" type="line"/>
      <point x="487" y="0" type="line"/>
      <point x="237" y="249" type="line"/>
      <point x="578" y="481" type="line"/>
      <point x="504" y="481" type="line"/>
      <point x="180" y="263" type="line"/>
      <point x="279" y="737" type="line"/>
      <point x="228" y="725" type="line"/>
    </contour>
  </outline>
</glyph>
<glyph name="l" format="2">
  <advance width="600"/>
  <unicode hex="006C"/>
  <guideline x="445" y="727" angle="78.0" color="0.999,0.001,0.001,0.999" identifier="fcRuPTquRh"/>
  <anchor x="368" y="700" name="top"/>
  <anchor x="329" y="0" name="bottom"/>
  <outline>
    <contour>
      <point x="353" y="-10" type="curve" smooth="yes"/>
      <point x="384" y="-10"/>
      <point x="410" y="-5"/>
      <point x="437" y="5" type="curve"/>
      <point x="447" y="50" type="line"/>
      <point x="414" y="38"/>
      <point x="389" y="33"/>
      <point x="361" y="33" type="curve" smooth="yes"/>
      <point x="293" y="33"/>
      <point x="259" y="57"/>
      <point x="274" y="130" type="curve" smooth="yes"/>
      <point x="399" y="727" type="line"/>
      <point x="167" y="727" type="line"/>
      <point x="158" y="684" type="line"/>
      <point x="341" y="684" type="line"/>
      <point x="225" y="132" type="line" smooth="yes"/>
      <point x="205" y="37"/>
      <point x="256" y="-10"/>
    </contour>
  </outline>
</glyph>
<glyph name="m" format="2">
  <advance width="600"/>
  <unicode hex="006D"/>
  <outline>
    <contour>
      <point x="24" y="0" type="line"/>
      <point x="72" y="0" type="line"/>
      <point x="160" y="410" type="line"/>
      <point x="182" y="435"/>
      <point x="207" y="449"/>
      <point x="238" y="449" type="curve" smooth="yes"/>
      <point x="284" y="449"/>
      <point x="312" y="409"/>
      <point x="300" y="353" type="curve" smooth="yes"/>
      <point x="224" y="0" type="line"/>
      <point x="272" y="0" type="line"/>
      <point x="348" y="353" type="line" smooth="yes"/>
      <point x="351" y="369"/>
      <point x="352" y="384"/>
      <point x="351" y="397" type="curve"/>
      <point x="375" y="431"/>
      <point x="402" y="449"/>
      <point x="436" y="449" type="curve" smooth="yes"/>
      <point x="482" y="449"/>
      <point x="512" y="409"/>
      <point x="500" y="353" type="curve" smooth="yes"/>
      <point x="424" y="0" type="line"/>
      <point x="472" y="0" type="line"/>
      <point x="547" y="350" type="line" smooth="yes"/>
      <point x="565" y="432"/>
      <point x="522" y="489"/>
      <point x="453" y="489" type="curve" smooth="yes"/>
      <point x="415" y="489"/>
      <point x="377" y="469"/>
      <point x="345" y="428" type="curve"/>
      <point x="331" y="466"/>
      <point x="298" y="489"/>
      <point x="255" y="489" type="curve" smooth="yes"/>
      <point x="224" y="489"/>
      <point x="194" y="475"/>
      <point x="167" y="446" type="curve"/>
      <point x="175" y="481" type="line"/>
      <point x="127" y="481" type="line"/>
    </contour>
  </outline>
</glyph>
<glyph name="o" format="2">
  <advance width="600"/>
  <unicode hex="006F"/>
  <anchor x="334" y="476" name="top"/>
  <outline>
    <contour>
      <point x="266" y="-10" type="curve" smooth="yes"/>
      <point x="408" y="-10"/>
      <point x="526" y="121"/>
      <point x="526" y="278" type="curve" smooth="yes"/>
      <point x="526" y="402"/>
      <point x="446" y="489"/>
      <point x="334" y="489" type="curve" smooth="yes"/>
      <point x="192" y="489"/>
      <point x="74" y="358"/>
      <point x="74" y="201" type="curve" smooth="yes"/>
      <point x="74" y="77"/>
      <point x="154" y="-10"/>
    </contour>
    <contour>
      <point x="268" y="36" type="curve" smooth="yes"/>
      <point x="181" y="36"/>
      <point x="123" y="104"/>
      <point x="123" y="202" type="curve" smooth="yes"/>
      <point x="123" y="335"/>
      <point x="218" y="443"/>
      <point x="332" y="443" type="curve" smooth="yes"/>
      <point x="419" y="443"/>
      <point x="477" y="375"/>
      <point x="477" y="277" type="curve" smooth="yes"/>
      <point x="477" y="144"/>
      <point x="382" y="36"/>
    </contour>
  </outline>
</glyph>
<glyph name="p" format="2">
  <advance width="600"/>
  <unicode hex="0070"/>
  <outline>
    <contour>
      <point x="7" y="-209" type="line"/>
      <point x="56" y="-209" type="line"/>
      <point x="117" y="76" type="line"/>
      <point x="159" y="22"/>
      <point x="214" y="-8"/>
      <point x="283" y="-8" type="curve" smooth="yes"/>
      <point x="422" y="-8"/>
      <point x="536" y="115"/>
      <point x="536" y="266" type="curve" smooth="yes"/>
      <point x="536" y="394"/>
      <point x="453" y="487"/>
      <point x="333" y="487" type="curve"/>
      <point x="279" y="487"/>
      <point x="233" y="469"/>
      <point x="192" y="429" type="curve"/>
      <point x="203" y="481" type="line"/>
      <point x="155" y="481" type="line"/>
    </contour>
    <contour>
      <point x="280" y="38" type="curve" smooth="yes"/>
      <point x="216" y="38"/>
      <point x="155" y="74"/>
      <point x="128" y="126" type="curve"/>
      <point x="183" y="385" type="line"/>
      <point x="221" y="423"/>
      <point x="265" y="441"/>
      <point x="317" y="441" type="curve"/>
      <point x="419" y="441"/>
      <point x="487" y="369"/>
      <point x="487" y="261" type="curve" smooth="yes"/>
      <point x="487" y="137"/>
      <point x="396" y="38"/>
    </contour>
  </outline>
</glyph>
<glyph name="s" format="2">
  <advance width="600"/>
  <unicode hex="0073"/>
  <anchor x="312" y="481" name="top"/>
  <anchor x="273" y="0" name="bottom"/>
  <outline>
    <contour>
      <point x="284" y="-10" type="curve" smooth="yes"/>
      <point x="398" y="-10"/>
      <point x="475" y="49"/>
      <point x="475" y="132" type="curve"/>
      <point x="475" y="319"/>
      <point x="168" y="216"/>
      <point x="168" y="357" type="curve" smooth="yes"/>
      <point x="168" y="411"/>
      <point x="217" y="445"/>
      <point x="295" y="445" type="curve" smooth="yes"/>
      <point x="351" y="445"/>
      <point x="412" y="419"/>
      <point x="464" y="369" type="curve"/>
      <point x="498" y="406" type="line"/>
      <point x="439" y="465"/>
      <point x="366" y="489"/>
      <point x="290" y="489" type="curve" smooth="yes"/>
      <point x="183" y="489"/>
      <point x="120" y="433"/>
      <point x="120" y="352" type="curve" smooth="yes"/>
      <point x="120" y="170"/>
      <point x="427" y="266"/>
      <point x="427" y="132" type="curve"/>
      <point x="427" y="73"/>
      <point x="374" y="34"/>
      <point x="290" y="34" type="curve" smooth="yes"/>
      <point x="219" y="34"/>
      <point x="168" y="58"/>
      <point x="109" y="116" type="curve"/>
      <point x="73" y="85" type="line"/>
      <point x="126" y="25"/>
      <point x="203" y="-10"/>
    </contour>
  </outline>
</glyph>
<glyph name="t" format="2">
  <advance width="600"/>
  <unicode hex="0074"/>
  <anchor x="305" y="0" name="bottom"/>
  <outline>
    <contour>
      <point x="333" y="-10" type="curve" smooth="yes"/>
      <point x="373" y="-10"/>
      <point x="416" y="-1"/>
      <point x="454" y="15" type="curve"/>
      <point x="465" y="64" type="line"/>
      <point x="413" y="44"/>
      <point x="377" y="36"/>
      <point x="338" y="36" type="curve" smooth="yes"/>
      <point x="264" y="36"/>
      <point x="233" y="63"/>
      <point x="247" y="130" type="curve" smooth="yes"/>
      <point x="313" y="438" type="line"/>
      <point x="545" y="438" type="line"/>
      <point x="554" y="481" type="line"/>
      <point x="322" y="481" type="line"/>
      <point x="353" y="625" type="line"/>
      <point x="301" y="612" type="line"/>
      <point x="273" y="481" type="line"/>
      <point x="101" y="481" type="line"/>
      <point x="92" y="438" type="line"/>
      <point x="264" y="438" type="line"/>
      <point x="196" y="122" type="line" smooth="yes"/>
      <point x="178" y="37"/>
      <point x="227" y="-10"/>
    </contour>
  </outline>
</glyph>
<glyph name="y" format="2">
  <advance width="600"/>
  <unicode hex="0079"/>
  <guideline x="343" y="481" angle="0.0" color="0.999,0.001,0.001,0.999" identifier="Vjf2ni5vua"/>
  <anchor x="343" y="481" name="top"/>
  <outline>
    <contour>
      <point x="65" y="-219" type="curve" smooth="yes"/>
      <point x="124" y="-219"/>
      <point x="152" y="-199"/>
      <point x="197" y="-127" type="curve" smooth="yes"/>
      <point x="575" y="481" type="line"/>
      <point x="519" y="481" type="line"/>
      <point x="253" y="56" type="line"/>
      <point x="167" y="481" type="line"/>
      <point x="118" y="481" type="line"/>
      <point x="215" y="-7" type="line"/>
      <point x="154" y="-108" type="line" smooth="yes"/>
      <point x="126" y="-154"/>
      <point x="100" y="-173"/>
      <point x="66" y="-173" type="curve" smooth="yes"/>
      <point x="45" y="-173"/>
      <point x="28" y="-168"/>
      <point x="5" y="-155" type="curve"/>
      <point x="-5" y="-204" type="line"/>
      <point x="23" y="-214"/>
      <point x="45" y="-219"/>
    </contour>
  </outline>
</glyph>
<glyph name="z" format="2">
  <advance width="600"/>
  <unicode hex="007A"/>
  <guideline x="350" y="481" angle="0.0" color="0.999,0.001,0.001,0.999" identifier="sH4Iq6QwTo"/>
  <anchor x="350" y="481" name="top"/>
  <outline>
    <contour>
      <point x="49" y="0" type="line"/>
      <point x="442" y="0" type="line"/>
      <point x="452" y="46" type="line"/>
      <point x="129" y="46" type="line"/>
      <point x="535" y="440" type="line"/>
      <point x="544" y="481" type="line"/>
      <point x="157" y="481" type="line"/>
      <point x="147" y="435" type="line"/>
      <point x="463" y="435" type="line"/>
      <point x="58" y="42" type="line"/>
    </contour>
  </outline>
</glyph>
<glyph name="braceleft" format="2">
  <advance width="600"/>
  <unicode hex="007B"/>
  <outline>
    <contour>
      <point x="254" y="-219" type="curve" smooth="yes"/>
      <point x="294" y="-219"/>
      <point x="329" y="-208"/>
      <point x="371" y="-186" type="curve"/>
      <point x="361" y="-146" type="line"/>
      <point x="325" y="-164"/>
      <point x="285" y="-175"/>
      <point x="255" y="-175" type="curve" smooth="yes"/>
      <point x="207" y="-175"/>
      <point x="174" y="-142"/>
      <point x="174" y="-108" type="curve" smooth="yes"/>
      <point x="174" y="-26"/>
      <point x="329" y="61"/>
      <point x="329" y="150" type="curve" smooth="yes"/>
      <point x="329" y="186"/>
      <point x="305" y="225"/>
      <point x="269" y="240" type="curve"/>
      <point x="325" y="254"/>
      <point x="370" y="301"/>
      <point x="370" y="371" type="curve" smooth="yes"/>
      <point x="370" y="443"/>
      <point x="312" y="528"/>
      <point x="312" y="583" type="curve" smooth="yes"/>
      <point x="312" y="629"/>
      <point x="347" y="667"/>
      <point x="410" y="667" type="curve" smooth="yes"/>
      <point x="450" y="667"/>
      <point x="486" y="654"/>
      <point x="525" y="630" type="curve"/>
      <point x="549" y="670" type="line"/>
      <point x="503" y="699"/>
      <point x="460" y="711"/>
      <point x="412" y="711" type="curve" smooth="yes"/>
      <point x="314" y="711"/>
      <point x="266" y="648"/>
      <point x="266" y="578" type="curve" smooth="yes"/>
      <point x="266" y="503"/>
      <point x="326" y="420"/>
      <point x="326" y="359" type="curve" smooth="yes"/>
      <point x="326" y="305"/>
      <point x="280" y="269"/>
      <point x="220" y="269" type="curve" smooth="yes"/>
      <point x="124" y="269" type="line"/>
      <point x="115" y="223" type="line"/>
      <point x="211" y="223" type="line" smooth="yes"/>
      <point x="257" y="223"/>
      <point x="285" y="190"/>
      <point x="285" y="156" type="curve" smooth="yes"/>
      <point x="285" y="75"/>
      <point x="127" y="-7"/>
      <point x="127" y="-116" type="curve" smooth="yes"/>
      <point x="127" y="-171"/>
      <point x="176" y="-219"/>
    </contour>
  </outline>
</glyph>
<glyph name="braceright" format="2">
  <advance width="600"/>
  <unicode hex="007D"/>
  <outline>
    <contour>
      <point x="349" y="713" type="curve" smooth="yes"/>
      <point x="309" y="713"/>
      <point x="274" y="702"/>
      <point x="232" y="680" type="curve"/>
      <point x="242" y="640" type="line"/>
      <point x="278" y="658"/>
      <point x="318" y="669"/>
      <point x="348" y="669" type="curve" smooth="yes"/>
      <point x="396" y="669"/>
      <point x="429" y="636"/>
      <point x="429" y="602" type="curve" smooth="yes"/>
      <point x="429" y="520"/>
      <point x="274" y="433"/>
      <point x="274" y="344" type="curve" smooth="yes"/>
      <point x="274" y="308"/>
      <point x="298" y="269"/>
      <point x="334" y="254" type="curve"/>
      <point x="278" y="240"/>
      <point x="233" y="193"/>
      <point x="233" y="123" type="curve" smooth="yes"/>
      <point x="233" y="51"/>
      <point x="291" y="-34"/>
      <point x="291" y="-89" type="curve" smooth="yes"/>
      <point x="291" y="-135"/>
      <point x="256" y="-173"/>
      <point x="193" y="-173" type="curve" smooth="yes"/>
      <point x="153" y="-173"/>
      <point x="117" y="-160"/>
      <point x="78" y="-136" type="curve"/>
      <point x="54" y="-176" type="line"/>
      <point x="100" y="-205"/>
      <point x="143" y="-217"/>
      <point x="191" y="-217" type="curve" smooth="yes"/>
      <point x="289" y="-217"/>
      <point x="337" y="-154"/>
      <point x="337" y="-84" type="curve" smooth="yes"/>
      <point x="337" y="-9"/>
      <point x="277" y="74"/>
      <point x="277" y="135" type="curve" smooth="yes"/>
      <point x="277" y="189"/>
      <point x="323" y="225"/>
      <point x="383" y="225" type="curve" smooth="yes"/>
      <point x="479" y="225" type="line"/>
      <point x="488" y="271" type="line"/>
      <point x="392" y="271" type="line" smooth="yes"/>
      <point x="346" y="271"/>
      <point x="318" y="304"/>
      <point x="318" y="338" type="curve" smooth="yes"/>
      <point x="318" y="419"/>
      <point x="476" y="501"/>
      <point x="476" y="610" type="curve" smooth="yes"/>
      <point x="476" y="665"/>
      <point x="427" y="713"/>
    </contour>
  </outline>
</glyph>
<glyph name="sterling" format="2">
  <advance width="600"/>
  <unicode hex="00A3"/>
  <outline>
    <contour>
      <point x="386" y="-25" type="curve" smooth="yes"/>
      <point x="437" y="-25"/>
      <point x="481" y="2"/>
      <point x="516" y="42" type="curve"/>
      <point x="482" y="73" type="line"/>
      <point x="458" y="42"/>
      <point x="427" y="23"/>
      <point x="391" y="23" type="curve" smooth="yes"/>
      <point x="330" y="23"/>
      <point x="249" y="61"/>
      <point x="184" y="79" type="curve"/>
      <point x="215" y="100"/>
      <point x="237" y="151"/>
      <point x="237" y="216" type="curve" smooth="yes"/>
      <point x="237" y="224"/>
      <point x="236" y="255"/>
      <point x="234" y="294" type="curve"/>
      <point x="387" y="294" type="line"/>
      <point x="396" y="338" type="line"/>
      <point x="233" y="338" type="line"/>
      <point x="230" y="401"/>
      <point x="228" y="466"/>
      <point x="228" y="476" type="curve" smooth="yes"/>
      <point x="228" y="596"/>
      <point x="281" y="665"/>
      <point x="374" y="665" type="curve" smooth="yes"/>
      <point x="449" y="665"/>
      <point x="492" y="619"/>
      <point x="504" y="522" type="curve"/>
      <point x="551" y="531" type="line"/>
      <point x="535" y="652"/>
      <point x="477" y="711"/>
      <point x="373" y="711" type="curve" smooth="yes"/>
      <point x="253" y="711"/>
      <point x="179" y="621"/>
      <point x="179" y="476" type="curve" smooth="yes"/>
      <point x="179" y="467"/>
      <point x="182" y="401"/>
      <point x="184" y="338" type="curve"/>
      <point x="83" y="338" type="line"/>
      <point x="74" y="294" type="line"/>
      <point x="186" y="294" type="line"/>
      <point x="187" y="256"/>
      <point x="188" y="225"/>
      <point x="188" y="216" type="curve" smooth="yes"/>
      <point x="188" y="155"/>
      <point x="171" y="116"/>
      <point x="134" y="88" type="curve"/>
      <point x="69" y="88"/>
      <point x="18" y="59"/>
      <point x="-19" y="4" type="curve"/>
      <point x="13" y="-25" type="line"/>
      <point x="44" y="18"/>
      <point x="79" y="42"/>
      <point x="124" y="42" type="curve" smooth="yes"/>
      <point x="193" y="42"/>
      <point x="305" y="-25"/>
    </contour>
  </outline>
</glyph>
<glyph name="uni00A4" format="2">
  <advance width="600"/>
  <unicode hex="00A4"/>
  <outline>
    <contour>
      <point x="62" y="69" type="line"/>
      <point x="155" y="163" type="line"/>
      <point x="199" y="125"/>
      <point x="256" y="102"/>
      <point x="319" y="102" type="curve" smooth="yes"/>
      <point x="382" y="102"/>
      <point x="439" y="125"/>
      <point x="483" y="163" type="curve"/>
      <point x="576" y="69" type="line"/>
      <point x="605" y="100" type="line"/>
      <point x="511" y="195" type="line"/>
      <point x="547" y="239"/>
      <point x="568" y="295"/>
      <point x="568" y="360" type="curve" smooth="yes"/>
      <point x="568" y="425"/>
      <point x="547" y="481"/>
      <point x="511" y="525" type="curve"/>
      <point x="605" y="620" type="line"/>
      <point x="576" y="651" type="line"/>
      <point x="483" y="557" type="line"/>
      <point x="439" y="595"/>
      <point x="382" y="618"/>
      <point x="319" y="618" type="curve" smooth="yes"/>
      <point x="256" y="618"/>
      <point x="199" y="595"/>
      <point x="155" y="557" type="curve"/>
      <point x="62" y="651" type="line"/>
      <point x="33" y="620" type="line"/>
      <point x="127" y="525" type="line"/>
      <point x="91" y="481"/>
      <point x="70" y="425"/>
      <point x="70" y="360" type="curve" smooth="yes"/>
      <point x="70" y="295"/>
      <point x="91" y="239"/>
      <point x="127" y="195" type="curve"/>
      <point x="33" y="100" type="line"/>
    </contour>
    <contour>
      <point x="319" y="150" type="curve" smooth="yes"/>
      <point x="208" y="150"/>
      <point x="122" y="242"/>
      <point x="122" y="360" type="curve" smooth="yes"/>
      <point x="122" y="478"/>
      <point x="208" y="570"/>
      <point x="319" y="570" type="curve" smooth="yes"/>
      <point x="430" y="570"/>
      <point x="516" y="478"/>
      <point x="516" y="360" type="curve" smooth="yes"/>
      <point x="516" y="242"/>
      <point x="430" y="150"/>
    </contour>
  </outline>
</glyph>
<glyph name="uni00A6" format="2">
  <advance width="600"/>
  <unicode hex="00A6"/>
  <outline>
    <contour>
      <point x="288" y="288" type="line"/>
      <point x="334" y="288" type="line"/>
      <point x="422" y="700" type="line"/>
      <point x="376" y="700" type="line"/>
    </contour>
    <contour>
      <point x="183" y="-209" type="line"/>
      <point x="229" y="-209" type="line"/>
      <point x="317" y="203" type="line"/>
      <point x="271" y="203" type="line"/>
    </contour>
  </outline>
</glyph>
<glyph name="dieresis" format="2">
  <advance width="600"/>
  <unicode hex="00A8"/>
  <guideline x="388" y="658" angle="90.0" identifier="ZLJNNYRNwr"/>
  <guideline x="388" y="658" angle="0.0" identifier="e3xUI0MGpf"/>
  <outline>
    <contour>
      <point x="281" y="605" type="curve" smooth="yes"/>
      <point x="313" y="605"/>
      <point x="339" y="631"/>
      <point x="339" y="660" type="curve" smooth="yes"/>
      <point x="339" y="687"/>
      <point x="316" y="710"/>
      <point x="289" y="710" type="curve" smooth="yes"/>
      <point x="258" y="710"/>
      <point x="232" y="683"/>
      <point x="232" y="655" type="curve" smooth="yes"/>
      <point x="232" y="626"/>
      <point x="253" y="605"/>
    </contour>
    <contour>
      <point x="477" y="605" type="curve" smooth="yes"/>
      <point x="509" y="605"/>
      <point x="535" y="631"/>
      <point x="535" y="660" type="curve" smooth="yes"/>
      <point x="535" y="687"/>
      <point x="512" y="710"/>
      <point x="485" y="710" type="curve" smooth="yes"/>
      <point x="454" y="710"/>
      <point x="428" y="683"/>
      <point x="428" y="655" type="curve" smooth="yes"/>
      <point x="428" y="626"/>
      <point x="449" y="605"/>
    </contour>
  </outline>
</glyph>
<glyph name="macron" format="2">
  <advance width="600"/>
  <unicode hex="00AF"/>
  <outline>
    <contour>
      <point x="257" y="632" type="line"/>
      <point x="510" y="632" type="line"/>
      <point x="518" y="672" type="line"/>
      <point x="265" y="672" type="line"/>
    </contour>
  </outline>
</glyph>
<glyph name="degree" format="2">
  <advance width="600"/>
  <unicode hex="00B0"/>
  <outline>
    <contour>
      <point x="357" y="431" type="curve" smooth="yes"/>
      <point x="440" y="431"/>
      <point x="510" y="502"/>
      <point x="510" y="584" type="curve" smooth="yes"/>
      <point x="510" y="652"/>
      <point x="456" y="711"/>
      <point x="383" y="711" type="curve" smooth="yes"/>
      <point x="300" y="711"/>
      <point x="230" y="640"/>
      <point x="230" y="558" type="curve" smooth="yes"/>
      <point x="230" y="490"/>
      <point x="284" y="431"/>
    </contour>
    <contour>
      <point x="359" y="471" type="curve" smooth="yes"/>
      <point x="310" y="471"/>
      <point x="271" y="510"/>
      <point x="271" y="561" type="curve" smooth="yes"/>
      <point x="271" y="620"/>
      <point x="324" y="671"/>
      <point x="381" y="671" type="curve" smooth="yes"/>
      <point x="430" y="671"/>
      <point x="469" y="632"/>
      <point x="469" y="581" type="curve" smooth="yes"/>
      <point x="469" y="522"/>
      <point x="416" y="471"/>
    </contour>
  </outline>
</glyph>
<glyph name="periodcentered" format="2">
  <advance width="600"/>
  <unicode hex="00B7"/>
  <outline>
    <contour>
      <point x="305" y="237" type="curve" smooth="yes"/>
      <point x="335" y="237"/>
      <point x="364" y="266"/>
      <point x="364" y="298" type="curve" smooth="yes"/>
      <point x="364" y="325"/>
      <point x="344" y="345"/>
      <point x="317" y="345" type="curve" smooth="yes"/>
      <point x="287" y="345"/>
      <point x="258" y="316"/>
      <point x="258" y="284" type="curve" smooth="yes"/>
      <point x="258" y="257"/>
      <point x="278" y="237"/>
    </contour>
  </outline>
</glyph>
<glyph name="guillemotright" format="2">
  <advance width="600"/>
  <unicode hex="00BB"/>
  <outline>
    <contour>
      <point x="366" y="481" type="line"/>
      <point x="313" y="481" type="line"/>
      <point x="489" y="245" type="line"/>
      <point x="211" y="0" type="line"/>
      <point x="273" y="0" type="line"/>
      <point x="551" y="240" type="line"/>
    </contour>
    <contour>
      <point x="153" y="481" type="line"/>
      <point x="100" y="481" type="line"/>
      <point x="276" y="245" type="line"/>
      <point x="-2" y="0" type="line"/>
      <point x="60" y="0" type="line"/>
      <point x="338" y="240" type="line"/>
    </contour>
  </outline>
</glyph>
<glyph name="threequarters" format="2">
  <advance width="600"/>
  <unicode hex="00BE"/>
  <guideline x="280" y="631" angle="0.0" identifier="zYFDQqQnrC"/>
  <outline>
    <contour>
      <point x="176" y="413" type="curve" smooth="yes"/>
      <point x="243" y="413"/>
      <point x="294" y="452"/>
      <point x="294" y="500" type="curve" smooth="yes"/>
      <point x="294" y="530"/>
      <point x="272" y="554"/>
      <point x="237" y="561" type="curve"/>
      <point x="283" y="569"/>
      <point x="310" y="601"/>
      <point x="310" y="636" type="curve" smooth="yes"/>
      <point x="310" y="677"/>
      <point x="274" y="705"/>
      <point x="222" y="705" type="curve" smooth="yes"/>
      <point x="188" y="705"/>
      <point x="151" y="693"/>
      <point x="121" y="671" type="curve"/>
      <point x="140" y="641" type="line"/>
      <point x="170" y="662"/>
      <point x="196" y="669"/>
      <point x="216" y="669" type="curve" smooth="yes"/>
      <point x="248" y="669"/>
      <point x="269" y="653"/>
      <point x="269" y="630" type="curve" smooth="yes"/>
      <point x="269" y="605"/>
      <point x="246" y="575"/>
      <point x="199" y="575" type="curve" smooth="yes"/>
      <point x="175" y="575" type="line"/>
      <point x="169" y="542" type="line"/>
      <point x="197" y="542" type="line" smooth="yes"/>
      <point x="231" y="542"/>
      <point x="253" y="528"/>
      <point x="253" y="502" type="curve" smooth="yes"/>
      <point x="253" y="474"/>
      <point x="227" y="449"/>
      <point x="180" y="449" type="curve" smooth="yes"/>
      <point x="148" y="449"/>
      <point x="125" y="461"/>
      <point x="102" y="482" type="curve"/>
      <point x="73" y="451" type="line"/>
      <point x="101" y="425"/>
      <point x="138" y="413"/>
    </contour>
    <contour>
      <point x="420" y="0" type="line"/>
      <point x="459" y="0" type="line"/>
      <point x="474" y="71" type="line"/>
      <point x="507" y="71" type="line"/>
      <point x="515" y="105" type="line"/>
      <point x="481" y="105" type="line"/>
      <point x="519" y="282" type="line"/>
      <point x="472" y="282" type="line"/>
      <point x="280" y="105" type="line"/>
      <point x="273" y="71" type="line"/>
      <point x="435" y="71" type="line"/>
    </contour>
    <contour>
      <point x="329" y="105" type="line"/>
      <point x="468" y="232" type="line"/>
      <point x="442" y="105" type="line"/>
    </contour>
    <component base="fraction" xOffset="37"/>
  </outline>
</glyph>
<glyph name="questiondown" format="2">
  <advance width="600"/>
  <unicode hex="00BF"/>
  <outline>
    <contour>
      <point x="362" y="291" type="curve"/>
      <point x="317" y="291" type="line"/>
      <point x="293" y="95"/>
      <point x="42" y="150"/>
      <point x="42" y="-63" type="curve" smooth="yes"/>
      <point x="42" y="-151"/>
      <point x="116" y="-219"/>
      <point x="223" y="-219" type="curve" smooth="yes"/>
      <point x="293" y="-219"/>
      <point x="363" y="-186"/>
      <point x="429" y="-127" type="curve"/>
      <point x="398" y="-87" type="line"/>
      <point x="342" y="-139"/>
      <point x="282" y="-171"/>
      <point x="222" y="-171" type="curve" smooth="yes"/>
      <point x="145" y="-171"/>
      <point x="91" y="-125"/>
      <point x="91" y="-61" type="curve" smooth="yes"/>
      <point x="91" y="106"/>
      <point x="348" y="78"/>
    </contour>
    <contour>
      <point x="374" y="500" type="curve" smooth="yes"/>
      <point x="344" y="500"/>
      <point x="315" y="471"/>
      <point x="315" y="439" type="curve" smooth="yes"/>
      <point x="315" y="412"/>
      <point x="335" y="392"/>
      <point x="362" y="392" type="curve" smooth="yes"/>
      <point x="392" y="392"/>
      <point x="421" y="421"/>
      <point x="421" y="453" type="curve" smooth="yes"/>
      <point x="421" y="480"/>
      <point x="401" y="500"/>
    </contour>
  </outline>
</glyph>
<glyph name="multiply" format="2">
  <advance width="600"/>
  <unicode hex="00D7"/>
  <outline>
    <contour>
      <point x="140" y="168" type="line"/>
      <point x="320" y="326" type="line"/>
      <point x="435" y="168" type="line"/>
      <point x="469" y="197" type="line"/>
      <point x="354" y="356" type="line"/>
      <point x="539" y="518" type="line"/>
      <point x="511" y="550" type="line"/>
      <point x="329" y="390" type="line"/>
      <point x="213" y="550" type="line"/>
      <point x="179" y="521" type="line"/>
      <point x="295" y="361" type="line"/>
      <point x="112" y="200" type="line"/>
    </contour>
  </outline>
</glyph>
<glyph name="Thorn" format="2">
  <advance width="600"/>
  <unicode hex="00DE"/>
  <outline>
    <contour>
      <point x="54" y="0" type="line"/>
      <point x="105" y="0" type="line"/>
      <point x="137" y="148" type="line"/>
      <point x="325" y="148" type="line" smooth="yes"/>
      <point x="464" y="148"/>
      <point x="564" y="243"/>
      <point x="564" y="377" type="curve" smooth="yes"/>
      <point x="564" y="484"/>
      <point x="491" y="550"/>
      <point x="374" y="550" type="curve" smooth="yes"/>
      <point x="222" y="550" type="line"/>
      <point x="254" y="700" type="line"/>
      <point x="203" y="700" type="line"/>
    </contour>
    <contour>
      <point x="147" y="195" type="line"/>
      <point x="212" y="503" type="line"/>
      <point x="368" y="503" type="line" smooth="yes"/>
      <point x="458" y="503"/>
      <point x="513" y="455"/>
      <point x="513" y="375" type="curve" smooth="yes"/>
      <point x="513" y="269"/>
      <point x="435" y="195"/>
      <point x="325" y="195" type="curve" smooth="yes"/>
    </contour>
  </outline>
</glyph>
<glyph name="ae" format="2">
  <advance width="600"/>
  <unicode hex="00E6"/>
  <outline>
    <contour>
      <point x="312" y="272" type="line"/>
      <point x="340" y="366"/>
      <point x="400" y="443"/>
      <point x="461" y="443" type="curve" smooth="yes"/>
      <point x="520" y="443"/>
      <point x="542" y="384"/>
      <point x="527" y="272" type="curve"/>
    </contour>
    <contour>
      <point x="140" y="33" type="curve" smooth="yes"/>
      <point x="88" y="33"/>
      <point x="59" y="65"/>
      <point x="59" y="123" type="curve" smooth="yes"/>
      <point x="59" y="183"/>
      <point x="99" y="237"/>
      <point x="168" y="237" type="curve" smooth="yes"/>
      <point x="204" y="237"/>
      <point x="229" y="227"/>
      <point x="253" y="210" type="curve"/>
      <point x="251" y="195"/>
      <point x="250" y="180"/>
      <point x="250" y="164" type="curve" smooth="yes"/>
      <point x="250" y="141"/>
      <point x="252" y="120"/>
      <point x="257" y="102" type="curve"/>
      <point x="221" y="59"/>
      <point x="177" y="33"/>
    </contour>
    <contour>
      <point x="134" y="-10" type="curve" smooth="yes"/>
      <point x="185" y="-10"/>
      <point x="230" y="14"/>
      <point x="270" y="65" type="curve"/>
      <point x="292" y="18"/>
      <point x="332" y="-10"/>
      <point x="387" y="-10" type="curve" smooth="yes"/>
      <point x="432" y="-10"/>
      <point x="481" y="5"/>
      <point x="522" y="39" type="curve"/>
      <point x="496" y="75" type="line"/>
      <point x="468" y="51"/>
      <point x="424" y="36"/>
      <point x="392" y="36" type="curve" smooth="yes"/>
      <point x="327" y="36"/>
      <point x="296" y="84"/>
      <point x="296" y="164" type="curve" smooth="yes"/>
      <point x="296" y="186"/>
      <point x="298" y="209"/>
      <point x="302" y="231" type="curve"/>
      <point x="566" y="231" type="line"/>
      <point x="574" y="263"/>
      <point x="579" y="298"/>
      <point x="579" y="329" type="curve" smooth="yes"/>
      <point x="579" y="428"/>
      <point x="543" y="489"/>
      <point x="464" y="489" type="curve" smooth="yes"/>
      <point x="414" y="489"/>
      <point x="365" y="457"/>
      <point x="327" y="406" type="curve"/>
      <point x="318" y="459"/>
      <point x="272" y="489"/>
      <point x="214" y="489" type="curve" smooth="yes"/>
      <point x="166" y="489"/>
      <point x="116" y="469"/>
      <point x="71" y="433" type="curve"/>
      <point x="98" y="399" type="line"/>
      <point x="140" y="430"/>
      <point x="179" y="446"/>
      <point x="213" y="446" type="curve" smooth="yes"/>
      <point x="263" y="446"/>
      <point x="288" y="411"/>
      <point x="274" y="344" type="curve" smooth="yes"/>
      <point x="255" y="254" type="line"/>
      <point x="229" y="269"/>
      <point x="202" y="279"/>
      <point x="169" y="279" type="curve" smooth="yes"/>
      <point x="72" y="279"/>
      <point x="10" y="204"/>
      <point x="10" y="115" type="curve" smooth="yes"/>
      <point x="10" y="43"/>
      <point x="62" y="-10"/>
    </contour>
  </outline>
</glyph>
<glyph name="ccedilla" format="2">
  <advance width="600"/>
  <unicode hex="00E7"/>
  <outline>
    <contour>
      <point x="238" y="-235" type="curve"/>
      <point x="300" y="-235"/>
      <point x="348" y="-195"/>
      <point x="348" y="-138" type="curve"/>
      <point x="348" y="-99"/>
      <point x="320" y="-72"/>
      <point x="267" y="-68" type="curve"/>
      <point x="293" y="-10" type="line"/>
      <point x="363" y="-6"/>
      <point x="430" y="27"/>
      <point x="475" y="80" type="curve"/>
      <point x="441" y="110" type="line"/>
      <point x="400" y="63"/>
      <point x="341" y="36"/>
      <point x="279" y="36" type="curve" smooth="yes"/>
      <point x="189" y="36"/>
      <point x="121" y="106"/>
      <point x="121" y="205" type="curve" smooth="yes"/>
      <point x="121" y="337"/>
      <point x="217" y="443"/>
      <point x="331" y="443" type="curve" smooth="yes"/>
      <point x="401" y="443"/>
      <point x="454" y="407"/>
      <point x="476" y="345" type="curve"/>
      <point x="520" y="361" type="line"/>
      <point x="490" y="441"/>
      <point x="420" y="489"/>
      <point x="334" y="489" type="curve" smooth="yes"/>
      <point x="190" y="489"/>
      <point x="72" y="364"/>
      <point x="72" y="206" type="curve" smooth="yes"/>
      <point x="72" y="86"/>
      <point x="149" y="-1"/>
      <point x="260" y="-9" type="curve"/>
      <point x="221" y="-96" type="line"/>
      <point x="245" y="-96" type="line" smooth="yes"/>
      <point x="286" y="-96"/>
      <point x="313" y="-113"/>
      <point x="313" y="-144" type="curve"/>
      <point x="313" y="-178"/>
      <point x="286" y="-204"/>
      <point x="236" y="-204" type="curve"/>
      <point x="207" y="-204"/>
      <point x="184" y="-194"/>
      <point x="163" y="-171" type="curve"/>
      <point x="139" y="-195" type="line"/>
      <point x="157" y="-217"/>
      <point x="192" y="-235"/>
    </contour>
  </outline>
</glyph>
<glyph name="eth" format="2">
  <advance width="600"/>
  <unicode hex="00F0"/>
  <outline>
    <contour>
      <point x="268" y="-10" type="curve" smooth="yes"/>
      <point x="433" y="-10"/>
      <point x="548" y="153"/>
      <point x="548" y="389" type="curve" smooth="yes"/>
      <point x="548" y="485"/>
      <point x="526" y="566"/>
      <point x="482" y="629" type="curve"/>
      <point x="587" y="680" type="line"/>
      <point x="575" y="717" type="line"/>
      <point x="457" y="660" type="line"/>
      <point x="428" y="692"/>
      <point x="391" y="718"/>
      <point x="347" y="737" type="curve"/>
      <point x="324" y="700" type="line"/>
      <point x="360" y="685"/>
      <point x="391" y="665"/>
      <point x="416" y="639" type="curve"/>
      <point x="314" y="590" type="line"/>
      <point x="328" y="553" type="line"/>
      <point x="442" y="609" type="line"/>
      <point x="493" y="541"/>
      <point x="514" y="446"/>
      <point x="504" y="332" type="curve"/>
      <point x="486" y="419"/>
      <point x="411" y="480"/>
      <point x="313" y="480" type="curve" smooth="yes"/>
      <point x="176" y="480"/>
      <point x="66" y="359"/>
      <point x="66" y="205" type="curve" smooth="yes"/>
      <point x="66" y="79"/>
      <point x="150" y="-10"/>
    </contour>
    <contour>
      <point x="272" y="35" type="curve" smooth="yes"/>
      <point x="180" y="35"/>
      <point x="115" y="106"/>
      <point x="115" y="209" type="curve" smooth="yes"/>
      <point x="115" y="333"/>
      <point x="207" y="438"/>
      <point x="317" y="438" type="curve" smooth="yes"/>
      <point x="410" y="438"/>
      <point x="478" y="365"/>
      <point x="478" y="263" type="curve" smooth="yes"/>
      <point x="478" y="143"/>
      <point x="383" y="35"/>
    </contour>
  </outline>
</glyph>
<glyph name="thorn" format="2">
  <advance width="600"/>
  <unicode hex="00FE"/>
  <outline>
    <contour>
      <point x="5" y="-209" type="line"/>
      <point x="54" y="-209" type="line"/>
      <point x="116" y="77" type="line"/>
      <point x="158" y="22"/>
      <point x="213" y="-8"/>
      <point x="283" y="-8" type="curve" smooth="yes"/>
      <point x="422" y="-8"/>
      <point x="536" y="115"/>
      <point x="536" y="266" type="curve" smooth="yes"/>
      <point x="536" y="394"/>
      <point x="453" y="487"/>
      <point x="338" y="487" type="curve" smooth="yes"/>
      <point x="275" y="487"/>
      <point x="229" y="466"/>
      <point x="192" y="429" type="curve"/>
      <point x="257" y="737" type="line"/>
      <point x="205" y="725" type="line"/>
    </contour>
    <contour>
      <point x="280" y="38" type="curve" smooth="yes"/>
      <point x="215" y="38"/>
      <point x="153" y="75"/>
      <point x="127" y="127" type="curve"/>
      <point x="182" y="384" type="line"/>
      <point x="219" y="421"/>
      <point x="264" y="441"/>
      <point x="322" y="441" type="curve" smooth="yes"/>
      <point x="419" y="441"/>
      <point x="487" y="369"/>
      <point x="487" y="261" type="curve" smooth="yes"/>
      <point x="487" y="137"/>
      <point x="396" y="38"/>
    </contour>
  </outline>
</glyph>
<glyph name="aogonek" format="2">
  <advance width="600"/>
  <unicode hex="0105"/>
  <outline>
    <contour>
      <point x="344" y="-232" type="curve" smooth="yes"/>
      <point x="365" y="-232"/>
      <point x="386" y="-227"/>
      <point x="401" y="-220" type="curve"/>
      <point x="398" y="-188" type="line"/>
      <point x="385" y="-193"/>
      <point x="366" y="-197"/>
      <point x="352" y="-197" type="curve" smooth="yes"/>
      <point x="314" y="-197"/>
      <point x="287" y="-176"/>
      <point x="287" y="-146" type="curve" smooth="yes"/>
      <point x="287" y="-102"/>
      <point x="318" y="-56"/>
      <point x="424" y="0" type="curve"/>
      <point x="493" y="306" type="line" smooth="yes"/>
      <point x="518" y="419"/>
      <point x="456" y="489"/>
      <point x="334" y="489" type="curve" smooth="yes"/>
      <point x="273" y="489"/>
      <point x="218" y="473"/>
      <point x="159" y="444" type="curve"/>
      <point x="176" y="402" type="line"/>
      <point x="236" y="432"/>
      <point x="285" y="447"/>
      <point x="330" y="447" type="curve" smooth="yes"/>
      <point x="425" y="447"/>
      <point x="465" y="396"/>
      <point x="443" y="298" type="curve" smooth="yes"/>
      <point x="428" y="229" type="line"/>
      <point x="389" y="265"/>
      <point x="325" y="282"/>
      <point x="257" y="282" type="curve" smooth="yes"/>
      <point x="143" y="282"/>
      <point x="64" y="218"/>
      <point x="64" y="127" type="curve" smooth="yes"/>
      <point x="64" y="45"/>
      <point x="134" y="-10"/>
      <point x="233" y="-10" type="curve" smooth="yes"/>
      <point x="289" y="-10"/>
      <point x="339" y="10"/>
      <point x="387" y="50" type="curve"/>
      <point x="376" y="0" type="line"/>
      <point x="377" y="0" type="line"/>
      <point x="290" y="-45"/>
      <point x="247" y="-96"/>
      <point x="247" y="-154" type="curve" smooth="yes"/>
      <point x="247" y="-195"/>
      <point x="279" y="-232"/>
    </contour>
    <contour>
      <point x="240" y="32" type="curve" smooth="yes"/>
      <point x="160" y="32"/>
      <point x="112" y="70"/>
      <point x="112" y="130" type="curve" smooth="yes"/>
      <point x="112" y="194"/>
      <point x="173" y="240"/>
      <point x="260" y="240" type="curve" smooth="yes"/>
      <point x="321" y="240"/>
      <point x="373" y="227"/>
      <point x="419" y="189" type="curve"/>
      <point x="397" y="94" type="line"/>
      <point x="348" y="51"/>
      <point x="298" y="32"/>
    </contour>
  </outline>
</glyph>
<glyph name="dcaron" format="2">
  <advance width="600"/>
  <unicode hex="010F"/>
  <outline>
    <contour>
      <point x="224" y="-8" type="curve" smooth="yes"/>
      <point x="276" y="-8"/>
      <point x="319" y="8"/>
      <point x="358" y="43" type="curve"/>
      <point x="349" y="0" type="line"/>
      <point x="398" y="0" type="line"/>
      <point x="549" y="727" type="line"/>
      <point x="498" y="715" type="line"/>
      <point x="435" y="413" type="line"/>
      <point x="395" y="461"/>
      <point x="346" y="487"/>
      <point x="283" y="487" type="curve" smooth="yes"/>
      <point x="147" y="487"/>
      <point x="36" y="364"/>
      <point x="36" y="213" type="curve" smooth="yes"/>
      <point x="36" y="85"/>
      <point x="115" y="-8"/>
    </contour>
    <contour>
      <point x="240" y="38" type="curve" smooth="yes"/>
      <point x="149" y="38"/>
      <point x="85" y="110"/>
      <point x="85" y="218" type="curve" smooth="yes"/>
      <point x="85" y="342"/>
      <point x="174" y="441"/>
      <point x="286" y="441" type="curve" smooth="yes"/>
      <point x="342" y="441"/>
      <point x="396" y="411"/>
      <point x="426" y="368" type="curve"/>
      <point x="367" y="83" type="line"/>
      <point x="331" y="52"/>
      <point x="291" y="38"/>
    </contour>
    <contour>
      <point x="613" y="549" type="line"/>
      <point x="649" y="549" type="line"/>
      <point x="708" y="737" type="line"/>
      <point x="653" y="725" type="line"/>
    </contour>
  </outline>
</glyph>
<glyph name="Dcroat" format="2">
  <advance width="600"/>
  <unicode hex="0110"/>
  <guideline x="217" y="349" angle="0.0" identifier="lSU6gAvYy4"/>
  <outline>
    <contour>
      <point x="50" y="0" type="line"/>
      <point x="245" y="0" type="line" smooth="yes"/>
      <point x="442" y="0"/>
      <point x="581" y="181"/>
      <point x="581" y="412" type="curve" smooth="yes"/>
      <point x="581" y="614"/>
      <point x="470" y="700"/>
      <point x="321" y="700" type="curve" smooth="yes"/>
      <point x="199" y="700" type="line"/>
      <point x="129" y="373" type="line"/>
      <point x="46" y="373" type="line"/>
      <point x="36" y="329" type="line"/>
      <point x="120" y="329" type="line"/>
    </contour>
    <contour>
      <point x="111" y="47" type="line"/>
      <point x="171" y="329" type="line"/>
      <point x="304" y="329" type="line"/>
      <point x="314" y="373" type="line"/>
      <point x="180" y="373" type="line"/>
      <point x="240" y="653" type="line"/>
      <point x="326" y="653" type="line" smooth="yes"/>
      <point x="453" y="653"/>
      <point x="530" y="567"/>
      <point x="530" y="406" type="curve" smooth="yes"/>
      <point x="530" y="211"/>
      <point x="416" y="47"/>
      <point x="242" y="47" type="curve" smooth="yes"/>
    </contour>
  </outline>
</glyph>
<glyph name="Eogonek" format="2">
  <advance width="600"/>
  <unicode hex="0118"/>
  <outline>
    <contour>
      <point x="53" y="0" type="line"/>
      <point x="426" y="0" type="line"/>
      <point x="333" y="-55"/>
      <point x="304" y="-107"/>
      <point x="304" y="-154" type="curve" smooth="yes"/>
      <point x="304" y="-195"/>
      <point x="336" y="-232"/>
      <point x="401" y="-232" type="curve" smooth="yes"/>
      <point x="422" y="-232"/>
      <point x="443" y="-227"/>
      <point x="458" y="-220" type="curve"/>
      <point x="455" y="-188" type="line"/>
      <point x="442" y="-193"/>
      <point x="423" y="-197"/>
      <point x="409" y="-197" type="curve" smooth="yes"/>
      <point x="371" y="-197"/>
      <point x="344" y="-176"/>
      <point x="344" y="-146" type="curve" smooth="yes"/>
      <point x="344" y="-102"/>
      <point x="375" y="-56"/>
      <point x="481" y="0" type="curve"/>
      <point x="491" y="47" type="line"/>
      <point x="114" y="47" type="line"/>
      <point x="174" y="330" type="line"/>
      <point x="426" y="330" type="line"/>
      <point x="436" y="377" type="line"/>
      <point x="184" y="377" type="line"/>
      <point x="243" y="653" type="line"/>
      <point x="617" y="653" type="line"/>
      <point x="627" y="700" type="line"/>
      <point x="202" y="700" type="line"/>
    </contour>
  </outline>
</glyph>
<glyph name="gcommaaccent" format="2">
  <advance width="600"/>
  <unicode hex="0123"/>
  <outline>
    <contour>
      <point x="464" y="791" type="line"/>
      <point x="425" y="791" type="line"/>
      <point x="327" y="611" type="line"/>
      <point x="383" y="611" type="line"/>
    </contour>
    <component base="g"/>
  </outline>
</glyph>
<glyph name="dotlessi" format="2">
  <advance width="600"/>
  <unicode hex="0131"/>
  <guideline x="389" y="481" angle="0.0" color="0.999,0.001,0.001,0.999" identifier="xGx8Pz8Rim"/>
  <guideline x="389" y="481" angle="0.0" color="0.999,0.001,0.001,0.999" identifier="9yQ9iBFjaH"/>
  <anchor x="343" y="481" name="top"/>
  <anchor x="437" y="0" name="bottom"/>
  <outline>
    <contour>
      <point x="371" y="-10" type="curve" smooth="yes"/>
      <point x="402" y="-10"/>
      <point x="428" y="-5"/>
      <point x="455" y="5" type="curve"/>
      <point x="465" y="50" type="line"/>
      <point x="432" y="38"/>
      <point x="407" y="33"/>
      <point x="379" y="33" type="curve" smooth="yes"/>
      <point x="311" y="33"/>
      <point x="276" y="57"/>
      <point x="292" y="130" type="curve"/>
      <point x="368" y="481" type="line"/>
      <point x="136" y="481" type="line"/>
      <point x="127" y="438" type="line"/>
      <point x="310" y="438" type="line"/>
      <point x="243" y="132" type="line"/>
      <point x="223" y="37"/>
      <point x="274" y="-10"/>
    </contour>
  </outline>
</glyph>
<glyph name="Lslash" format="2">
  <advance width="600"/>
  <unicode hex="0141"/>
  <outline>
    <contour>
      <point x="66" y="0" type="line"/>
      <point x="490" y="0" type="line"/>
      <point x="500" y="47" type="line"/>
      <point x="127" y="47" type="line"/>
      <point x="181" y="301" type="line"/>
      <point x="379" y="429" type="line"/>
      <point x="392" y="490" type="line"/>
      <point x="194" y="362" type="line"/>
      <point x="266" y="700" type="line"/>
      <point x="215" y="700" type="line"/>
      <point x="136" y="330" type="line"/>
      <point x="14" y="249" type="line"/>
      <point x="1" y="188" type="line"/>
      <point x="123" y="269" type="line"/>
    </contour>
  </outline>
</glyph>
<glyph name="OE" format="2">
  <advance width="600"/>
  <unicode hex="0152"/>
  <outline>
    <contour>
      <point x="305" y="0" type="curve" smooth="yes"/>
      <point x="529" y="0" type="line"/>
      <point x="539" y="47" type="line"/>
      <point x="309" y="47" type="line"/>
      <point x="370" y="330" type="line"/>
      <point x="520" y="330" type="line"/>
      <point x="530" y="377" type="line"/>
      <point x="380" y="377" type="line"/>
      <point x="439" y="653" type="line"/>
      <point x="665" y="653" type="line"/>
      <point x="675" y="700" type="line"/>
      <point x="394" y="700" type="line"/>
      <point x="184" y="700"/>
      <point x="43" y="523"/>
      <point x="43" y="270" type="curve" smooth="yes"/>
      <point x="43" y="90"/>
      <point x="145" y="0"/>
    </contour>
    <contour>
      <point x="259" y="49" type="line"/>
      <point x="155" y="63"/>
      <point x="94" y="144"/>
      <point x="94" y="272" type="curve" smooth="yes"/>
      <point x="94" y="492"/>
      <point x="207" y="648"/>
      <point x="388" y="653" type="curve"/>
    </contour>
  </outline>
</glyph>
<glyph name="Scedilla" format="2">
  <advance width="600"/>
  <unicode hex="015E"/>
  <outline>
    <contour>
      <point x="244" y="-235" type="curve"/>
      <point x="306" y="-235"/>
      <point x="354" y="-195"/>
      <point x="354" y="-138" type="curve"/>
      <point x="354" y="-99"/>
      <point x="326" y="-72"/>
      <point x="273" y="-68" type="curve"/>
      <point x="298" y="-12" type="line"/>
      <point x="421" y="-9"/>
      <point x="520" y="69"/>
      <point x="520" y="189" type="curve" smooth="yes"/>
      <point x="520" y="436"/>
      <point x="178" y="337"/>
      <point x="178" y="533" type="curve" smooth="yes"/>
      <point x="178" y="605"/>
      <point x="239" y="665"/>
      <point x="349" y="665" type="curve" smooth="yes"/>
      <point x="416" y="665"/>
      <point x="491" y="634"/>
      <point x="558" y="574" type="curve"/>
      <point x="588" y="616" type="line"/>
      <point x="510" y="684"/>
      <point x="429" y="712"/>
      <point x="347" y="712" type="curve" smooth="yes"/>
      <point x="210" y="712"/>
      <point x="130" y="633"/>
      <point x="130" y="532" type="curve" smooth="yes"/>
      <point x="130" y="291"/>
      <point x="472" y="385"/>
      <point x="472" y="189" type="curve" smooth="yes"/>
      <point x="472" y="100"/>
      <point x="394" y="35"/>
      <point x="294" y="35" type="curve" smooth="yes"/>
      <point x="216" y="35"/>
      <point x="127" y="76"/>
      <point x="76" y="148" type="curve"/>
      <point x="38" y="113" type="line"/>
      <point x="87" y="40"/>
      <point x="175" y="-4"/>
      <point x="265" y="-11" type="curve"/>
      <point x="227" y="-96" type="line"/>
      <point x="251" y="-96" type="line" smooth="yes"/>
      <point x="292" y="-96"/>
      <point x="319" y="-113"/>
      <point x="319" y="-144" type="curve"/>
      <point x="319" y="-178"/>
      <point x="292" y="-204"/>
      <point x="242" y="-204" type="curve"/>
      <point x="213" y="-204"/>
      <point x="190" y="-194"/>
      <point x="169" y="-171" type="curve"/>
      <point x="145" y="-195" type="line"/>
      <point x="163" y="-217"/>
      <point x="198" y="-235"/>
    </contour>
  </outline>
</glyph>
<glyph name="tcaron" format="2">
  <advance width="600"/>
  <unicode hex="0165"/>
  <outline>
    <contour>
      <point x="431" y="549" type="line"/>
      <point x="467" y="549" type="line"/>
      <point x="526" y="737" type="line"/>
      <point x="471" y="725" type="line"/>
    </contour>
    <component base="t"/>
  </outline>
</glyph>
<glyph name="Uogonek" format="2">
  <advance width="600"/>
  <unicode hex="0172"/>
  <outline>
    <contour>
      <point x="274" y="-232" type="curve" smooth="yes"/>
      <point x="295" y="-232"/>
      <point x="316" y="-227"/>
      <point x="331" y="-220" type="curve"/>
      <point x="328" y="-188" type="line"/>
      <point x="315" y="-193"/>
      <point x="296" y="-197"/>
      <point x="282" y="-197" type="curve" smooth="yes"/>
      <point x="244" y="-197"/>
      <point x="217" y="-176"/>
      <point x="217" y="-146" type="curve" smooth="yes"/>
      <point x="217" y="-102"/>
      <point x="248" y="-56"/>
      <point x="353" y="-1" type="curve"/>
      <point x="447" y="26"/>
      <point x="507" y="105"/>
      <point x="535" y="236" type="curve" smooth="yes"/>
      <point x="634" y="700" type="line"/>
      <point x="583" y="700" type="line"/>
      <point x="486" y="245" type="line" smooth="yes"/>
      <point x="457" y="110"/>
      <point x="391" y="37"/>
      <point x="270" y="37" type="curve" smooth="yes"/>
      <point x="147" y="37"/>
      <point x="90" y="126"/>
      <point x="119" y="260" type="curve" smooth="yes"/>
      <point x="213" y="700" type="line"/>
      <point x="162" y="700" type="line"/>
      <point x="71" y="271" type="line" smooth="yes"/>
      <point x="31" y="86"/>
      <point x="122" y="-15"/>
      <point x="282" y="-11" type="curve"/>
      <point x="212" y="-56"/>
      <point x="177" y="-103"/>
      <point x="177" y="-154" type="curve" smooth="yes"/>
      <point x="177" y="-195"/>
      <point x="209" y="-232"/>
    </contour>
  </outline>
</glyph>
<glyph name="circumflex" format="2">
  <advance width="600"/>
  <unicode hex="02C6"/>
  <outline>
    <contour>
      <point x="234" y="574" type="line"/>
      <point x="277" y="574" type="line"/>
      <point x="390" y="663" type="line"/>
      <point x="467" y="574" type="line"/>
      <point x="507" y="574" type="line"/>
      <point x="423" y="695" type="line"/>
      <point x="366" y="695" type="line"/>
    </contour>
  </outline>
</glyph>
<glyph name="hungarumlaut" format="2">
  <advance width="600"/>
  <unicode hex="02DD"/>
  <outline>
    <contour>
      <point x="235" y="577" type="line"/>
      <point x="292" y="577" type="line"/>
      <point x="452" y="695" type="line"/>
      <point x="383" y="695" type="line"/>
    </contour>
    <contour>
      <point x="391" y="577" type="line"/>
      <point x="448" y="577" type="line"/>
      <point x="608" y="695" type="line"/>
      <point x="539" y="695" type="line"/>
    </contour>
  </outline>
</glyph>
<glyph name="uni0327" format="2">
  <unicode hex="0327"/>
  <guideline x="246" y="0" angle="0.0" color="0.999,0.001,0.001,0.999" identifier="eAwEMm5V8S"/>
  <anchor x="246" y="0" name="_bottom"/>
  <outline>
    <contour>
      <point x="204" y="-235" type="curve"/>
      <point x="266" y="-235"/>
      <point x="314" y="-195"/>
      <point x="314" y="-138" type="curve"/>
      <point x="314" y="-99"/>
      <point x="286" y="-72"/>
      <point x="233" y="-68" type="curve"/>
      <point x="263" y="0" type="line"/>
      <point x="230" y="0" type="line"/>
      <point x="187" y="-96" type="line"/>
      <point x="211" y="-96" type="line" smooth="yes"/>
      <point x="252" y="-96"/>
      <point x="279" y="-113"/>
      <point x="279" y="-144" type="curve"/>
      <point x="279" y="-178"/>
      <point x="252" y="-204"/>
      <point x="202" y="-204" type="curve"/>
      <point x="173" y="-204"/>
      <point x="150" y="-194"/>
      <point x="129" y="-171" type="curve"/>
      <point x="105" y="-195" type="line"/>
      <point x="123" y="-217"/>
      <point x="158" y="-235"/>
    </contour>
  </outline>
</glyph>
<glyph name="uni2015" format="2">
  <advance width="600"/>
  <unicode hex="2015"/>
  <outline>
    <contour>
      <point x="4" y="258" type="line"/>
      <point x="604" y="258" type="line"/>
      <point x="614" y="302" type="line"/>
      <point x="14" y="302" type="line"/>
    </contour>
  </outline>
</glyph>
<glyph name="quotedblleft" format="2">
  <advance width="600"/>
  <unicode hex="201C"/>
  <outline>
    <contour>
      <point x="384" y="750" type="line"/>
      <point x="342" y="750" type="line"/>
      <point x="217" y="538" type="line"/>
      <point x="292" y="538" type="line"/>
    </contour>
    <contour>
      <point x="531" y="750" type="line"/>
      <point x="489" y="750" type="line"/>
      <point x="364" y="538" type="line"/>
      <point x="439" y="538" type="line"/>
    </contour>
  </outline>
</glyph>
<glyph name="bullet" format="2">
  <advance width="600"/>
  <unicode hex="2022"/>
  <outline>
    <contour>
      <point x="316" y="266" type="curve" smooth="yes"/>
      <point x="371" y="266"/>
      <point x="421" y="315"/>
      <point x="421" y="370" type="curve" smooth="yes"/>
      <point x="421" y="419"/>
      <point x="385" y="456"/>
      <point x="336" y="456" type="curve" smooth="yes"/>
      <point x="281" y="456"/>
      <point x="231" y="406"/>
      <point x="231" y="352" type="curve" smooth="yes"/>
      <point x="231" y="303"/>
      <point x="267" y="266"/>
    </contour>
  </outline>
</glyph>
<glyph name="guilsinglleft" format="2">
  <advance width="600"/>
  <unicode hex="2039"/>
  <outline>
    <contour>
      <point x="333" y="0" type="line"/>
      <point x="386" y="0" type="line"/>
      <point x="224" y="236" type="line"/>
      <point x="489" y="481" type="line"/>
      <point x="426" y="481" type="line"/>
      <point x="164" y="241" type="line"/>
    </contour>
  </outline>
</glyph>
<glyph name="uni2080" format="2">
  <advance width="600"/>
  <unicode hex="2080"/>
  <outline>
    <contour>
      <point x="263" y="-5" type="curve" smooth="yes"/>
      <point x="355" y="-5"/>
      <point x="432" y="98"/>
      <point x="432" y="218" type="curve" smooth="yes"/>
      <point x="432" y="301"/>
      <point x="383" y="355"/>
      <point x="309" y="355" type="curve" smooth="yes"/>
      <point x="217" y="355"/>
      <point x="140" y="251"/>
      <point x="140" y="132" type="curve" smooth="yes"/>
      <point x="140" y="49"/>
      <point x="189" y="-5"/>
    </contour>
    <contour>
      <point x="268" y="30" type="curve" smooth="yes"/>
      <point x="215" y="30"/>
      <point x="179" y="68"/>
      <point x="179" y="132" type="curve" smooth="yes"/>
      <point x="179" y="233"/>
      <point x="239" y="320"/>
      <point x="305" y="320" type="curve" smooth="yes"/>
      <point x="358" y="320"/>
      <point x="393" y="282"/>
      <point x="393" y="218" type="curve" smooth="yes"/>
      <point x="393" y="117"/>
      <point x="334" y="30"/>
    </contour>
  </outline>
</glyph>
<glyph name="uni2081" format="2">
  <advance width="600"/>
  <unicode hex="2081"/>
  <outline>
    <contour>
      <point x="244" y="0" type="line"/>
      <point x="282" y="0" type="line"/>
      <point x="356" y="350" type="line"/>
      <point x="331" y="350" type="line"/>
      <point x="199" y="318" type="line"/>
      <point x="192" y="281" type="line"/>
      <point x="310" y="309" type="line"/>
    </contour>
  </outline>
</glyph>
<glyph name="uni2086" format="2">
  <advance width="600"/>
  <unicode hex="2086"/>
  <outline>
    <contour>
      <point x="270" y="-5" type="curve" smooth="yes"/>
      <point x="343" y="-5"/>
      <point x="403" y="52"/>
      <point x="403" y="120" type="curve" smooth="yes"/>
      <point x="403" y="176"/>
      <point x="359" y="216"/>
      <point x="300" y="216" type="curve" smooth="yes"/>
      <point x="260" y="216"/>
      <point x="221" y="201"/>
      <point x="194" y="177" type="curve"/>
      <point x="212" y="260"/>
      <point x="274" y="320"/>
      <point x="341" y="320" type="curve" smooth="yes"/>
      <point x="364" y="320"/>
      <point x="388" y="313"/>
      <point x="411" y="298" type="curve"/>
      <point x="431" y="331" type="line"/>
      <point x="402" y="347"/>
      <point x="372" y="355"/>
      <point x="344" y="355" type="curve" smooth="yes"/>
      <point x="239" y="355"/>
      <point x="151" y="256"/>
      <point x="151" y="130" type="curve" smooth="yes"/>
      <point x="151" y="49"/>
      <point x="198" y="-5"/>
    </contour>
    <contour>
      <point x="275" y="30" type="curve" smooth="yes"/>
      <point x="222" y="30"/>
      <point x="184" y="68"/>
      <point x="190" y="145" type="curve"/>
      <point x="216" y="170"/>
      <point x="251" y="184"/>
      <point x="284" y="184" type="curve" smooth="yes"/>
      <point x="332" y="184"/>
      <point x="365" y="156"/>
      <point x="365" y="115" type="curve" smooth="yes"/>
      <point x="365" y="69"/>
      <point x="324" y="30"/>
    </contour>
  </outline>
</glyph>
<glyph name="uni2087" format="2">
  <advance width="600"/>
  <unicode hex="2087"/>
  <outline>
    <contour>
      <point x="156" y="0" type="line"/>
      <point x="204" y="0" type="line"/>
      <point x="447" y="319" type="line"/>
      <point x="452" y="350" type="line"/>
      <point x="194" y="350" type="line"/>
      <point x="186" y="315" type="line"/>
      <point x="397" y="315" type="line"/>
    </contour>
  </outline>
</glyph>
<glyph name="uni2088" format="2">
  <advance width="600"/>
  <unicode hex="2088"/>
  <outline>
    <contour>
      <point x="261" y="-5" type="curve" smooth="yes"/>
      <point x="338" y="-5"/>
      <point x="399" y="43"/>
      <point x="399" y="103" type="curve" smooth="yes"/>
      <point x="399" y="138"/>
      <point x="376" y="166"/>
      <point x="338" y="180" type="curve"/>
      <point x="386" y="192"/>
      <point x="419" y="228"/>
      <point x="419" y="270" type="curve" smooth="yes"/>
      <point x="419" y="319"/>
      <point x="373" y="355"/>
      <point x="312" y="355" type="curve" smooth="yes"/>
      <point x="243" y="355"/>
      <point x="187" y="311"/>
      <point x="187" y="257" type="curve" smooth="yes"/>
      <point x="187" y="225"/>
      <point x="204" y="201"/>
      <point x="234" y="187" type="curve"/>
      <point x="179" y="176"/>
      <point x="139" y="134"/>
      <point x="139" y="87" type="curve" smooth="yes"/>
      <point x="139" y="34"/>
      <point x="189" y="-5"/>
    </contour>
    <contour>
      <point x="297" y="199" type="curve" smooth="yes"/>
      <point x="257" y="199"/>
      <point x="226" y="223"/>
      <point x="226" y="255" type="curve" smooth="yes"/>
      <point x="226" y="293"/>
      <point x="263" y="322"/>
      <point x="309" y="322" type="curve" smooth="yes"/>
      <point x="349" y="322"/>
      <point x="380" y="298"/>
      <point x="380" y="266" type="curve" smooth="yes"/>
      <point x="380" y="228"/>
      <point x="344" y="199"/>
    </contour>
    <contour>
      <point x="264" y="28" type="curve" smooth="yes"/>
      <point x="214" y="28"/>
      <point x="178" y="55"/>
      <point x="178" y="92" type="curve" smooth="yes"/>
      <point x="178" y="132"/>
      <point x="222" y="166"/>
      <point x="274" y="166" type="curve" smooth="yes"/>
      <point x="324" y="166"/>
      <point x="360" y="139"/>
      <point x="360" y="102" type="curve" smooth="yes"/>
      <point x="360" y="62"/>
      <point x="315" y="28"/>
    </contour>
  </outline>
</glyph>
<glyph name="uni2089" format="2">
  <advance width="600"/>
  <unicode hex="2089"/>
  <outline>
    <contour>
      <point x="301" y="354" type="curve" smooth="yes"/>
      <point x="228" y="354"/>
      <point x="168" y="297"/>
      <point x="168" y="229" type="curve" smooth="yes"/>
      <point x="168" y="173"/>
      <point x="212" y="133"/>
      <point x="271" y="133" type="curve" smooth="yes"/>
      <point x="311" y="133"/>
      <point x="350" y="148"/>
      <point x="377" y="172" type="curve"/>
      <point x="359" y="89"/>
      <point x="297" y="29"/>
      <point x="230" y="29" type="curve" smooth="yes"/>
      <point x="207" y="29"/>
      <point x="183" y="36"/>
      <point x="160" y="51" type="curve"/>
      <point x="140" y="18" type="line"/>
      <point x="169" y="2"/>
      <point x="199" y="-6"/>
      <point x="227" y="-6" type="curve" smooth="yes"/>
      <point x="332" y="-6"/>
      <point x="420" y="93"/>
      <point x="420" y="219" type="curve" smooth="yes"/>
      <point x="420" y="300"/>
      <point x="373" y="354"/>
    </contour>
    <contour>
      <point x="296" y="319" type="curve" smooth="yes"/>
      <point x="349" y="319"/>
      <point x="387" y="281"/>
      <point x="381" y="204" type="curve"/>
      <point x="355" y="179"/>
      <point x="320" y="165"/>
      <point x="287" y="165" type="curve" smooth="yes"/>
      <point x="239" y="165"/>
      <point x="206" y="193"/>
      <point x="206" y="234" type="curve" smooth="yes"/>
      <point x="206" y="280"/>
      <point x="247" y="319"/>
    </contour>
  </outline>
</glyph>
<glyph name="uni2191" format="2">
  <advance width="600"/>
  <unicode hex="2191"/>
  <outline>
    <contour>
      <point x="296" y="0" type="line"/>
      <point x="342" y="0" type="line"/>
      <point x="342" y="651" type="line"/>
      <point x="516" y="418" type="line"/>
      <point x="550" y="442" type="line"/>
      <point x="320" y="750" type="line"/>
      <point x="90" y="442" type="line"/>
      <point x="126" y="416" type="line"/>
      <point x="296" y="644" type="line"/>
    </contour>
  </outline>
</glyph>
<glyph name="uni2193" format="2">
  <advance width="600"/>
  <unicode hex="2193"/>
  <outline>
    <contour>
      <point x="322" y="700" type="line"/>
      <point x="276" y="700" type="line"/>
      <point x="276" y="49" type="line"/>
      <point x="102" y="282" type="line"/>
      <point x="68" y="258" type="line"/>
      <point x="298" y="-50" type="line"/>
      <point x="528" y="258" type="line"/>
      <point x="492" y="284" type="line"/>
      <point x="322" y="56" type="line"/>
    </contour>
  </outline>
</glyph>
<glyph name="uni2215" format="2">
  <advance width="600"/>
  <unicode hex="2215"/>
  <outline>
    <contour>
      <point x="6" y="0" type="line"/>
      <point x="54" y="0" type="line"/>
      <point x="598" y="700" type="line"/>
      <point x="550" y="700" type="line"/>
    </contour>
  </outline>
</glyph>
<glyph name="fi" format="2">
  <advance width="600"/>
  <unicode hex="FB01"/>
  <outline>
    <contour>
      <point x="93" y="0" type="line"/>
      <point x="142" y="0" type="line"/>
      <point x="236" y="438" type="line"/>
      <point x="385" y="438" type="line"/>
      <point x="395" y="481" type="line"/>
      <point x="246" y="481" type="line"/>
      <point x="272" y="603" type="line" smooth="yes"/>
      <point x="285" y="663"/>
      <point x="309" y="690"/>
      <point x="363" y="690" type="curve" smooth="yes"/>
      <point x="387" y="690"/>
      <point x="404" y="687"/>
      <point x="427" y="677" type="curve"/>
      <point x="436" y="724" type="line"/>
      <point x="416" y="733"/>
      <point x="394" y="737"/>
      <point x="368" y="737" type="curve" smooth="yes"/>
      <point x="293" y="737"/>
      <point x="242" y="691"/>
      <point x="224" y="607" type="curve" smooth="yes"/>
      <point x="197" y="481" type="line"/>
      <point x="80" y="481" type="line"/>
      <point x="70" y="438" type="line"/>
      <point x="188" y="438" type="line"/>
    </contour>
    <contour>
      <point x="554" y="605" type="curve" smooth="yes"/>
      <point x="586" y="605"/>
      <point x="612" y="631"/>
      <point x="612" y="660" type="curve" smooth="yes"/>
      <point x="612" y="687"/>
      <point x="589" y="710"/>
      <point x="562" y="710" type="curve" smooth="yes"/>
      <point x="531" y="710"/>
      <point x="505" y="683"/>
      <point x="505" y="655" type="curve" smooth="yes"/>
      <point x="505" y="626"/>
      <point x="526" y="605"/>
    </contour>
    <contour>
      <point x="399" y="0" type="line"/>
      <point x="448" y="0" type="line"/>
      <point x="551" y="481" type="line"/>
      <point x="502" y="481" type="line"/>
    </contour>
  </outline>
</glyph>
<glyph name="uniFFFD" format="2">
  <advance width="600"/>
  <unicode hex="FFFD"/>
  <outline>
    <contour>
      <point x="104" y="-100" type="line"/>
      <point x="498" y="-100" type="line"/>
      <point x="498" y="750" type="line"/>
      <point x="104" y="750" type="line"/>
    </contour>
  </outline>
</glyph>
<glyph name="a.school" format="2">
  <advance width="600"/>
  <guideline x="569" y="128" angle="0.0" identifier="iu2Xtq9RMY"/>
  <anchor x="341" y="481" name="top"/>
  <anchor x="447" y="0" name="bottom"/>
  <outline>
    <contour>
      <point x="267" y="-8" type="curve"/>
      <point x="322" y="-8"/>
      <point x="368" y="10"/>
      <point x="409" y="51" type="curve"/>
      <point x="398" y="0" type="line"/>
      <point x="447" y="0" type="line"/>
      <point x="550" y="481" type="line"/>
      <point x="501" y="481" type="line"/>
      <point x="484" y="402" type="line"/>
      <point x="442" y="457"/>
      <point x="387" y="487"/>
      <point x="317" y="487" type="curve" smooth="yes"/>
      <point x="178" y="487"/>
      <point x="64" y="364"/>
      <point x="64" y="213" type="curve" smooth="yes"/>
      <point x="64" y="85"/>
      <point x="147" y="-8"/>
    </contour>
    <contour>
      <point x="283" y="38" type="curve"/>
      <point x="181" y="38"/>
      <point x="113" y="110"/>
      <point x="113" y="218" type="curve" smooth="yes"/>
      <point x="113" y="342"/>
      <point x="204" y="441"/>
      <point x="320" y="441" type="curve" smooth="yes"/>
      <point x="385" y="441"/>
      <point x="447" y="404"/>
      <point x="473" y="352" type="curve"/>
      <point x="419" y="96" type="line"/>
      <point x="380" y="56"/>
      <point x="336" y="38"/>
    </contour>
  </outline>
</glyph>
<glyph name="aogonek.school" format="2">
  <advance width="600"/>
  <outline>
    <contour>
      <point x="367" y="-232" type="curve" smooth="yes"/>
      <point x="388" y="-232"/>
      <point x="409" y="-227"/>
      <point x="424" y="-220" type="curve"/>
      <point x="421" y="-188" type="line"/>
      <point x="408" y="-193"/>
      <point x="389" y="-197"/>
      <point x="375" y="-197" type="curve" smooth="yes"/>
      <point x="337" y="-197"/>
      <point x="310" y="-176"/>
      <point x="310" y="-146" type="curve" smooth="yes"/>
      <point x="310" y="-102"/>
      <point x="341" y="-56"/>
      <point x="447" y="0" type="curve"/>
      <point x="550" y="481" type="line"/>
      <point x="501" y="481" type="line"/>
      <point x="484" y="402" type="line"/>
      <point x="442" y="457"/>
      <point x="387" y="487"/>
      <point x="317" y="487" type="curve" smooth="yes"/>
      <point x="178" y="487"/>
      <point x="64" y="364"/>
      <point x="64" y="213" type="curve" smooth="yes"/>
      <point x="64" y="85"/>
      <point x="147" y="-8"/>
      <point x="267" y="-8" type="curve"/>
      <point x="322" y="-8"/>
      <point x="368" y="10"/>
      <point x="409" y="51" type="curve"/>
      <point x="398" y="0" type="line"/>
      <point x="399" y="0" type="line"/>
      <point x="312" y="-47"/>
      <point x="270" y="-97"/>
      <point x="270" y="-154" type="curve" smooth="yes"/>
      <point x="270" y="-195"/>
      <point x="302" y="-232"/>
    </contour>
    <contour>
      <point x="283" y="38" type="curve"/>
      <point x="181" y="38"/>
      <point x="113" y="110"/>
      <point x="113" y="218" type="curve" smooth="yes"/>
      <point x="113" y="342"/>
      <point x="204" y="441"/>
      <point x="320" y="441" type="curve" smooth="yes"/>
      <point x="385" y="441"/>
      <point x="447" y="404"/>
      <point x="473" y="352" type="curve"/>
      <point x="419" y="96" type="line"/>
      <point x="380" y="56"/>
      <point x="336" y="38"/>
    </contour>
  </outline>
</glyph>
<glyph name="commaaccent" format="2">
  <advance width="600"/>
  <outline>
    <contour>
      <point x="130" y="-266" type="line"/>
      <point x="169" y="-266" type="line"/>
      <point x="267" y="-86" type="line"/>
      <point x="211" y="-86" type="line"/>
    </contour>
  </outline>
</glyph>
<glyph name="exclamdown.cap" format="2">
  <advance width="600"/>
  <outline>
    <contour>
      <point x="376" y="492" type="line"/>
      <point x="335" y="492" type="line"/>
      <point x="216" y="-27" type="line"/>
      <point x="269" y="-27" type="line"/>
    </contour>
    <contour>
      <point x="394" y="708" type="curve" smooth="yes"/>
      <point x="364" y="708"/>
      <point x="335" y="679"/>
      <point x="335" y="647" type="curve" smooth="yes"/>
      <point x="335" y="620"/>
      <point x="355" y="600"/>
      <point x="382" y="600" type="curve" smooth="yes"/>
      <point x="412" y="600"/>
      <point x="441" y="629"/>
      <point x="441" y="661" type="curve" smooth="yes"/>
      <point x="441" y="688"/>
      <point x="421" y="708"/>
    </contour>
  </outline>
</glyph>
<glyph name="gcommaaccent.alt" format="2">
  <advance width="600"/>
  <outline>
    <contour>
      <point x="463" y="785" type="line"/>
      <point x="424" y="785" type="line"/>
      <point x="326" y="605" type="line"/>
      <point x="382" y="605" type="line"/>
    </contour>
    <component base="g.alt"/>
  </outline>
</glyph>
<glyph name="questiondown.cap" format="2">
  <advance width="600"/>
  <outline>
    <contour>
      <point x="398" y="499" type="curve"/>
      <point x="353" y="499" type="line"/>
      <point x="329" y="303"/>
      <point x="78" y="358"/>
      <point x="78" y="145" type="curve" smooth="yes"/>
      <point x="78" y="57"/>
      <point x="152" y="-11"/>
      <point x="259" y="-11" type="curve" smooth="yes"/>
      <point x="329" y="-11"/>
      <point x="399" y="22"/>
      <point x="465" y="81" type="curve"/>
      <point x="434" y="121" type="line"/>
      <point x="378" y="69"/>
      <point x="318" y="37"/>
      <point x="258" y="37" type="curve" smooth="yes"/>
      <point x="181" y="37"/>
      <point x="127" y="83"/>
      <point x="127" y="147" type="curve" smooth="yes"/>
      <point x="127" y="314"/>
      <point x="384" y="286"/>
    </contour>
    <contour>
      <point x="410" y="708" type="curve" smooth="yes"/>
      <point x="380" y="708"/>
      <point x="351" y="679"/>
      <point x="351" y="647" type="curve" smooth="yes"/>
      <point x="351" y="620"/>
      <point x="371" y="600"/>
      <point x="398" y="600" type="curve" smooth="yes"/>
      <point x="428" y="600"/>
      <point x="457" y="629"/>
      <point x="457" y="661" type="curve" smooth="yes"/>
      <point x="457" y="688"/>
      <point x="437" y="708"/>
    </contour>
  </outline>
</glyph>
<glyph name="tildecomb" format="2">
  <anchor x="351" y="481" name="_top"/>
  <outline>
    <contour>
      <point x="258" y="582" type="line"/>
      <point x="276" y="623"/>
      <point x="292" y="639"/>
      <point x="315" y="639" type="curve" smooth="yes"/>
      <point x="356" y="639"/>
      <point x="394" y="580"/>
      <point x="452" y="580" type="curve" smooth="yes"/>
      <point x="487" y="580"/>
      <point x="521" y="610"/>
      <point x="548" y="666" type="curve"/>
      <point x="507" y="677" type="line"/>
      <point x="487" y="632"/>
      <point x="475" y="619"/>
      <point x="454" y="619" type="curve" smooth="yes"/>
      <point x="413" y="619"/>
      <point x="375" y="679"/>
      <point x="317" y="679" type="curve" smooth="yes"/>
      <point x="281" y="679"/>
      <point x="246" y="649"/>
      <point x="218" y="593" type="curve"/>
    </contour>
  </outline>
</glyph>
<glyph name="uni0302" format="2">
  <anchor x="351" y="481" name="_top"/>
  <outline>
    <contour>
      <point x="234" y="574" type="line"/>
      <point x="277" y="574" type="line"/>
      <point x="390" y="663" type="line"/>
      <point x="467" y="574" type="line"/>
      <point x="507" y="574" type="line"/>
      <point x="423" y="695" type="line"/>
      <point x="366" y="695" type="line"/>
    </contour>
  </outline>
</glyph>
<glyph name="uni0304" format="2">
  <anchor x="351" y="481" name="_top"/>
  <outline>
    <contour>
      <point x="257" y="632" type="line"/>
      <point x="510" y="632" type="line"/>
      <point x="518" y="672" type="line"/>
      <point x="265" y="672" type="line"/>
    </contour>
  </outline>
</glyph>
<glyph name="uni0326" format="2">
  <anchor x="246" y="0" name="_bottom"/>
  <outline>
    <contour>
      <point x="130" y="-266" type="line"/>
      <point x="169" y="-266" type="line"/>
      <point x="267" y="-86" type="line"/>
      <point x="211" y="-86" type="line"/>
    </contour>
  </outline>
</glyph>
